<svg width="309" height="308" fill="none" xmlns="http://www.w3.org/2000/svg"><path d="M299.73 293.852a.5.5 0 00-.608.795l.608-.795zm8.196 6.898l.304.397a.503.503 0 000-.795l-.304.398zm-8.804 6.102a.5.5 0 00.608.795l-.608-.795zm0-12.205l8.5 6.5.608-.795-8.5-6.5-.608.795zm8.5 5.705l-8.5 6.5.608.795 8.5-6.5-.608-.795z" fill="#2F056E"/><path d="M9.656 1.25c-58.23 190 194.754 194.788 180.5 121-8.5-44-103.77 32.5-28.231 131 34.201 44.596 104 47.555 135.5 47.555" stroke="url(#paint0_linear)" stroke-linecap="round" stroke-dasharray="6 6"/><defs><linearGradient id="paint0_linear" x1="247.425" y1="301.25" x2="1.425" y2="-8.75" gradientUnits="userSpaceOnUse"><stop stop-color="#2F056E"/><stop offset="1" stop-color="#2F056E" stop-opacity="0"/></linearGradient></defs></svg>