<svg width="1009" height="588" fill="none" xmlns="http://www.w3.org/2000/svg"><circle opacity=".2" r="8.278" transform="matrix(1 0 0 -1 935 33)" stroke="#F6F4EF" stroke-width="1.444"/><circle opacity=".2" r="2.167" transform="matrix(1 0 0 -1 565.889 499.888)" stroke="#F6F4EF" stroke-width="1.444"/><circle opacity=".2" r="5.056" transform="matrix(1 0 0 -1 362.778 438.778)" stroke="#F6F4EF" stroke-width="1.444"/><path opacity=".3" d="M992.889 556l.411 14.354 7.53-12.225-6.818 12.636 12.638-6.821-12.226 7.534 14.356.411-14.356.411 12.226 7.533-12.638-6.821 6.818 12.637-7.53-12.225-.411 14.354-.411-14.354-7.534 12.225 6.821-12.637-12.636 6.821 12.225-7.533-14.354-.411 14.354-.411-12.225-7.534 12.636 6.821-6.821-12.636 7.534 12.225.411-14.354z" fill="#F6F4EF"/><path opacity=".2" d="M26.722 0l.692 24.141 12.67-20.56-11.472 21.252L49.864 13.36l-20.56 12.67 24.14.691-24.14.692 20.56 12.67-21.252-11.472 11.471 21.252-12.67-20.56-.69 24.14-.692-24.14-12.67 20.56 11.472-21.252L3.58 40.083l20.561-12.67L0 26.724l24.141-.692-20.56-12.67 21.252 11.472L13.36 3.58l12.67 20.561L26.722 0z" fill="#F6F4EF"/></svg>