<svg width="1454" height="950" fill="none" xmlns="http://www.w3.org/2000/svg"><g opacity=".4" stroke="#BF92F8" stroke-width="2"><circle r="163.44" transform="matrix(1 0 0 -1 164.44 312.652)"/><circle r="4.348" transform="matrix(1 0 0 -1 250.002 173.614)" fill="#F4F4F4"/><circle r="16.5" transform="matrix(1 0 0 -1 181.5 17.5)"/><circle r="1.674" transform="matrix(1 0 0 -1 259.361 178.961)" fill="#F4F4F4"/></g><path opacity=".4" d="M1424.5 573l.76 26.651 13.99-22.699-12.66 23.462 23.46-12.664-22.7 13.986 26.65.764-26.65.764 22.7 13.986-23.46-12.664 12.66 23.462-13.99-22.699-.76 26.651-.76-26.651-13.99 22.699 12.66-23.462-23.46 12.664 22.7-13.986-26.65-.764 26.65-.764-22.7-13.986 23.46 12.664-12.66-23.462 13.99 22.699.76-26.651zM1224.5 24l.45 15.81 8.3-13.465-7.51 13.918 13.92-7.513-13.47 8.297 15.81.453-15.81.453 13.47 8.297-13.92-7.513 7.51 13.918-8.3-13.465-.45 15.81-.45-15.81-8.3 13.465 7.51-13.918-13.92 7.513 13.47-8.297L1207 41.5l15.81-.453-13.47-8.297 13.92 7.513-7.51-13.918 8.3 13.465.45-15.81z" fill="#BF92F8"/></svg>