<svg width="1517" height="706" fill="none" xmlns="http://www.w3.org/2000/svg"><path opacity=".4" d="M37.5 173l.97 33.878 17.78-28.854-16.098 29.824 29.824-16.098-28.854 17.779L75 210.5l-33.878.971 28.854 17.779-29.824-16.098 16.098 29.824-17.78-28.854L37.5 248l-.97-33.878-17.78 28.854 16.098-29.824L5.024 229.25l28.854-17.779L0 210.5l33.878-.971L5.024 191.75l29.824 16.098-16.098-29.824 17.78 28.854L37.5 173zM1487.5 647l.76 26.651 13.99-22.699-12.66 23.462 23.46-12.664-22.7 13.986 26.65.764-26.65.764 22.7 13.986-23.46-12.664 12.66 23.462-13.99-22.699-.76 26.651-.76-26.651-13.99 22.699 12.66-23.462-23.46 12.664 22.7-13.986-26.65-.764 26.65-.764-22.7-13.986 23.46 12.664-12.66-23.462 13.99 22.699.76-26.651zM373.5 662l.453 15.81 8.297-13.465-7.513 13.918 13.918-7.513-13.465 8.297 15.81.453-15.81.453 13.465 8.297-13.918-7.513 7.513 13.918-8.297-13.465L373.5 697l-.453-15.81-8.297 13.465 7.513-13.918-13.918 7.513 13.465-8.297L356 679.5l15.81-.453-13.465-8.297 13.918 7.513-7.513-13.918 8.297 13.465.453-15.81zM1457.5 0l.32 11.293 5.93-9.618-5.37 9.941 9.95-5.366-9.62 5.927 11.29.323-11.29.323 9.62 5.927-9.95-5.366 5.37 9.941-5.93-9.618L1457.5 25l-.32-11.293-5.93 9.618 5.37-9.941-9.95 5.366 9.62-5.927L1445 12.5l11.29-.323-9.62-5.927 9.95 5.366-5.37-9.941 5.93 9.618L1457.5 0zM782.5 309l.324 11.293 5.926-9.618-5.366 9.941 9.941-5.366-9.618 5.926L795 321.5l-11.293.324 9.618 5.926-9.941-5.366 5.366 9.941-5.926-9.618L782.5 334l-.324-11.293-5.926 9.618 5.366-9.941-9.941 5.366 9.618-5.926L770 321.5l11.293-.324-9.618-5.926 9.941 5.366-5.366-9.941 5.926 9.618L782.5 309z" fill="#BF92F8"/></svg>