<svg width="1254" height="669" fill="none" xmlns="http://www.w3.org/2000/svg"><path opacity=".4" d="M38.5 610l.764 26.651 13.986-22.699-12.664 23.462 23.462-12.664-22.699 13.986L68 639.5l-26.65.764 22.698 13.986-23.462-12.664 12.664 23.462-13.986-22.699L38.5 669l-.764-26.651-13.986 22.699 12.664-23.462-23.462 12.664 22.699-13.986L9 639.5l26.65-.764-22.698-13.986 23.462 12.664-12.664-23.462 13.986 22.699L38.5 610zM368.5 560l.505 17.616 9.245-15.003-8.371 15.508 15.508-8.371-15.003 9.245L388 579.5l-17.616.505 15.003 9.245-15.508-8.371 8.371 15.508-9.245-15.003L368.5 599l-.505-17.616-9.245 15.003 8.371-15.508-15.508 8.371 15.003-9.245L349 579.5l17.616-.505-15.003-9.245 15.508 8.371-8.371-15.508 9.245 15.003L368.5 560z" fill="#BF92F8"/><path opacity=".2" d="M19.5 0l.505 17.616L29.25 2.613 20.879 18.12 36.388 9.75l-15.004 9.245L39 19.5l-17.616.505 15.004 9.245-15.51-8.371 8.372 15.509-9.245-15.004L19.5 39l-.505-17.616L9.75 36.388l8.371-15.51L2.613 29.25l15.003-9.245L0 19.5l17.616-.505L2.613 9.75l15.508 8.371L9.75 2.613l9.245 15.003L19.5 0z" fill="#BF92F8"/><circle opacity=".25" r="111.5" transform="matrix(1 0 0 -1 1141.5 277.5)" stroke="#BF92F8" stroke-width="2"/></svg>