<svg width="1315" height="692" fill="none" xmlns="http://www.w3.org/2000/svg"><circle opacity=".45" r="12.5" transform="matrix(1 0 0 -1 13.5 618.5)" stroke="#BF92F8" stroke-width="2"/><g opacity=".25" stroke="#BF92F8" stroke-width="2"><path d="M1101.7 656.803a7.05 7.05 0 002.09-5.017 7.076 7.076 0 00-11.84-5.229m9.75 10.246a7.074 7.074 0 11-9.75-10.246m9.75 10.246C1124.24 678.008 1154.61 691 1188 691c69.59 0 126-56.412 126-126s-56.41-126-126-126-126 56.412-126 126c0 26.614 8.25 51.301 22.34 71.641m7.61 9.916c-.75-.89-1.5-1.792-2.23-2.703m0 0a4.501 4.501 0 001.85-3.64 4.497 4.497 0 00-7.23-3.573m5.38 7.213a4.503 4.503 0 01-7.15-3.64c0-1.456.69-2.75 1.77-3.573"/><path d="M1237.92 639.898a6.418 6.418 0 005.37 2.888c3.55 0 6.42-2.878 6.42-6.429 0-1.662-.63-3.176-1.66-4.317m-10.13 7.858a6.43 6.43 0 015.37-9.969c1.88 0 3.58.814 4.76 2.111m-10.13 7.858C1223.63 649.438 1206.47 655 1188 655c-49.71 0-90-40.294-90-90s40.29-90 90-90 90 40.294 90 90c0 26.631-11.57 50.561-29.95 67.04"/></g><path opacity=".4" d="M65.5 75l.763 26.651L80.25 78.952l-12.664 23.462L91.048 89.75 68.35 103.736 95 104.5l-26.65.764 22.698 13.986-23.462-12.664 12.664 23.462-13.987-22.699L65.5 134l-.763-26.651-13.987 22.699 12.664-23.462-23.462 12.664 22.699-13.986L36 104.5l26.65-.764L39.953 89.75l23.462 12.664L50.75 78.952l13.987 22.699L65.5 75zM1275.5 0l.5 17.616 9.25-15.003-8.37 15.508 15.51-8.371-15.01 9.245 17.62.505-17.62.505 15.01 9.245-15.51-8.371 8.37 15.509-9.25-15.004-.5 17.616-.5-17.616-9.25 15.004 8.37-15.51-15.51 8.372 15.01-9.245L1256 19.5l17.62-.505-15.01-9.245 15.51 8.371-8.37-15.508 9.25 15.003.5-17.616z" fill="#BF92F8"/></svg>