<svg width="521" height="759" fill="none" xmlns="http://www.w3.org/2000/svg"><path opacity=".5" d="M319.535 4.62c85.097-15.78 218.887 18.322 153.483 135.874-81.755 146.94-406.845-11.614-271.487 76.237 228.296 148.169 338.588 71.523 315.45 63.325-23.139-8.197-24.681 73.778-15.426 124.807 3.502 19.306-244.75 7.377-351.699 12.911-77.128 7.378-107.978 107.592 13.882 120.503 198.577 21.038 382.649 55.151 333.961 145.71-30.08 55.948-401.061 15.37-408.774 68.244-3.705 25.401 51.675-40.577 0-52.874C40.278 687.782 6.913 738.5 1 737.476" stroke="#BF92F8" stroke-width="1.589" stroke-linecap="round" stroke-dasharray="9.53 9.53"/></svg>