<svg width="309" height="1279" fill="none" xmlns="http://www.w3.org/2000/svg"><circle opacity=".45" r="12.5" transform="matrix(1 0 0 -1 156.5 13.5)" stroke="#BF92F8" stroke-width="2"/><circle opacity=".45" r="4.5" transform="matrix(1 0 0 -1 303.5 1273.5)" stroke="#BF92F8" stroke-width="2"/><g opacity=".25" stroke="#BF92F8" stroke-width="2"><path d="M40.697 565.803a7.072 7.072 0 00-9.744-10.246m9.744 10.246a7.071 7.071 0 11-9.744-10.246m9.744 10.246C63.245 587.008 93.605 600 127 600c69.588 0 126-56.412 126-126s-56.412-126-126-126S1 404.412 1 474c0 26.614 8.251 51.301 22.335 71.641m7.618 9.916a126.77 126.77 0 01-2.234-2.703m0 0a4.5 4.5 0 10-5.383-7.213m5.383 7.213a4.5 4.5 0 01-5.383-7.213"/><path d="M176.92 548.898a6.428 6.428 0 1010.129-7.858m-10.129 7.858a6.428 6.428 0 0110.129-7.858m-10.129 7.858C162.635 558.438 145.467 564 127 564c-49.706 0-90-40.294-90-90s40.294-90 90-90 90 40.294 90 90c0 26.631-11.567 50.561-29.951 67.04"/></g></svg>