<svg width="54" height="27" fill="none" xmlns="http://www.w3.org/2000/svg"><path d="M27.07 12.07c0 .434.362.542.542.542 1.083 0 0 .542 0 1.083 0 .433.903.541 1.083.541-.18 0-.974.109-.541.542.541.541-.542 1.624.541 2.165 1.083.542 2.707 0 3.249 0 .541 0 .541 0 1.082 3.249.434 2.599-1.624 5.053-2.707 5.956 5.198-2.6 10.107-1.444 11.912-.542 0-.722-.325-2.49-1.625-3.79-1.3-1.3-1.263-3.79-1.083-4.872-.722-.903-1.949-2.924-1.082-3.79 1.082-1.083.541-2.166 0-2.707-.434-.434-1.264.18-1.625.54.18-.54.433-2.056 0-3.789-.541-2.166-4.872-3.79-6.497-2.166-1.624 1.625-.541 2.707-1.082 4.332-.542 1.624-2.166 2.165-2.166 2.707z" fill="#fff"/><path d="M33.673.701c4.331-2.165 9.746 1.083 11.37 4.332 1.624 3.248 8.121 1.082 8.121 5.955s-2.707 3.79-5.414 5.414c-2.707 1.624-1.624 3.79.541 5.414-1.845-.284-5.13-1.25-7.89-3.368a7.622 7.622 0 01.063-1.728l.037-.22-.14-.174c-.341-.427-1.095-1.16-1.36-1.826-.133-.334-.169-.26-.172-.5-.003-.233.577-.405.672-.5 1.057-.657.592-1.857.5-2.5-.167-.667-.8-1.9-2-1.5 0-1.5-.233-1.93-.5-3-.5-1-.785-1.073-1.341-1.545a6.336 6.336 0 00-1.986-1.115c-.727-.254-1.505-.388-2.228-.34-.713.047-1.409.273-1.924.776.359-1.057 1.355-2.427 3.651-3.575zM26.093 12.07c0 .434-.36.542-.541.542-1.083 0 0 .542 0 1.083 0 .433-.903.541-1.083.541.18 0 .974.109.541.542-.541.541.542 1.624-.541 2.165-1.083.542-2.707 0-3.249 0-.541 0-.541 0-1.082 3.249-.434 2.599 1.624 5.053 2.707 5.956-5.198-2.6-10.107-1.444-11.911-.542 0-.722.324-2.49 1.624-3.79 1.3-1.3 1.263-3.79 1.083-4.872.722-.903 1.949-2.924 1.082-3.79-1.082-1.083-.541-2.166 0-2.707.434-.434 1.264.18 1.625.54-.18-.54-.433-2.056 0-3.789.541-2.166 4.872-3.79 6.497-2.166 1.624 1.625.541 2.707 1.082 4.332.542 1.624 2.166 2.165 2.166 2.707z" fill="#fff"/><path d="M19.49.701C15.16-1.464 9.746 1.784 8.122 5.033 6.497 8.28 0 6.115 0 10.988s2.707 3.79 5.414 5.414c2.707 1.624 1.624 3.79-.541 5.414 1.845-.284 5.13-1.25 7.89-3.368a7.616 7.616 0 00-.063-1.728l-.037-.22.14-.174c.341-.427 1.096-1.16 1.36-1.826.133-.334.169-.26.172-.5.003-.233-.577-.405-.672-.5-1.057-.657-.592-1.857-.5-2.5.167-.667.8-1.9 2-1.5 0-1.5.233-1.93.5-3 .5-1 .785-1.073 1.341-1.545A6.335 6.335 0 0118.99 3.84c.727-.254 1.505-.388 2.229-.34.711.047 1.408.273 1.923.776-.358-1.057-1.355-2.427-3.651-3.575z" fill="#fff"/></svg>