<svg width="24" height="35" fill="none" xmlns="http://www.w3.org/2000/svg"><path d="M17 10c1.2 2 3.167 3.5 4 4 1 0 2.8-1.2 2-6-.8-4.8-3.666-5.333-5-5-2-3.5-7-4-12 0s-3.5 8-5 11-1 5.5 3 8 5 6.5 2 7c-2.4.4-3-1.5-3-2.5C0 29 1.5 36 8 34c5.2-1.6 3.5-6.666 2-9 2.8-1.2 1.834-3.5 1-4.5 0 1.6-1 1.667-1.5 1.5-2.8-.8-1.833-3.666-1-5 7.2-2.8 8.667-5.833 8.5-7z" fill="#fff"/><path d="M21 15c-1.6-.4-3.333-1.833-4-2.5-1.2 2.8-5.5 4.5-7.5 5 2.4 3.6 4.667 4.5 5.5 4.5 3.6 0 5.5-4.667 6-7z" fill="#fff"/><path d="M18.324 7c-.334.833-.8 2.5 0 2.5s.333-1.667 0-2.5zM18.5 6.927c.354.825 1.203 2.333 1.768 1.768.566-.566-.942-1.415-1.768-1.768zM18.074 6.927c-.825.353-2.334 1.202-1.768 1.768.566.565 1.414-.943 1.768-1.768zM18 6.738c-.833-.334-2.5-.8-2.5 0s1.667.333 2.5 0zM18.324 6.5c-.334-.833-.8-2.5 0-2.5s.333 1.667 0 2.5zM18.074 6.5c-.825-.354-2.334-1.202-1.768-1.768.566-.565 1.414.943 1.768 1.768zM18.574 6.5c.825-.354 2.333-1.202 1.767-1.768-.565-.565-1.414.943-1.767 1.768zM18.628 6.737c.834-.333 2.5-.8 2.5 0s-1.666.334-2.5 0zM9.014 9.528c-.586 1.465-1.406 4.393 0 4.393 1.405 0 .585-2.928 0-4.393zM9.324 9.4c.621 1.45 2.112 4.1 3.106 3.106.994-.994-1.656-2.485-3.106-3.106zM8.574 9.4c-1.449.621-4.1 2.112-3.106 3.106.994.994 2.485-1.656 3.106-3.106zM8.446 9.068c-1.464-.586-4.393-1.406-4.393 0 0 1.405 2.929.585 4.393 0zM9.013 8.65c-.585-1.464-1.405-4.392 0-4.392 1.406 0 .586 2.928 0 4.392zM8.574 8.65c-1.45-.621-4.1-2.112-3.106-3.106.994-.994 2.485 1.657 3.106 3.106zM9.453 8.65c1.45-.621 4.1-2.112 3.106-3.106-.994-.994-2.485 1.657-3.106 3.106zM9.549 9.067c1.464-.585 4.392-1.405 4.392 0 0 1.406-2.928.586-4.392 0z" fill="#FF9E67"/></svg>