<svg width="24" height="26" fill="none" xmlns="http://www.w3.org/2000/svg"><path d="M15.485 18h-5.303L7 21.862h3.485L7.152 26 17 20.207h-5L15.485 18z" fill="#fff"/><path d="M13.028 1.323c-3.066 0-5.548 2.465-5.62 5.52a5.086 5.086 0 00-.634-.04c-2.812 0-5.079 2.295-5.079 5.11 0 2.815 2.267 5.11 5.079 5.11h11.148c2.812 0 5.079-2.295 5.079-5.11 0-2.568-1.886-4.703-4.352-5.058-.067-3.06-2.55-5.532-5.621-5.532z" fill="#fff" stroke="#BF92F8" stroke-width="2"/><path d="M10.513 10.27a4.112 4.112 0 00-1.942-2.047m0 0a4.036 4.036 0 00-1.797-.42c-2.253 0-4.079 1.84-4.079 4.11 0 2.27 1.826 4.11 4.079 4.11h11.148c2.253 0 4.079-1.84 4.079-4.11 0-2.27-1.826-4.11-4.079-4.11a4.1 4.1 0 00-.346.015m-9.005.405a4.697 4.697 0 01-.166-1.242c0-2.573 2.07-4.658 4.623-4.658 2.553 0 4.622 2.085 4.622 4.658 0 .286-.025.565-.074.837m-2.237 3.198a4.662 4.662 0 002.237-3.198" stroke="#BF92F8"/></svg>