<svg width="28" height="23" fill="none" xmlns="http://www.w3.org/2000/svg"><path d="M1.323 12.686l.204 1.243L2 16h10l1.11-2.071.194-1.343a2.438 2.438 0 00-1.472-2.595.244.244 0 01-.138-.15l-.02-.064a3.893 3.893 0 00-3.708-2.705H6.481a3.57 3.57 0 00-3.462 2.697l-.013.056a.246.246 0 01-.15.169 2.463 2.463 0 00-1.533 2.692zM15.928 21.214h11.786v-5.893a5.893 5.893 0 00-11.786 0v5.893z" fill="#fff"/><path d="M17.502 15.963c2.376.483 5.699-2.347 7.063-3.823l.285.725a7.29 7.29 0 01.507 2.67v2.538a3.927 3.927 0 11-7.855 0v-2.11zM11.033 13.213c-2.798 0-5.566-1.475-6.6-2.213l-.547.695a4.84 4.84 0 00-1.038 2.994h-.406a1.442 1.442 0 000 2.884h.406v.334a4.093 4.093 0 008.185 0v-.334h.34a1.442 1.442 0 000-2.884h-.34v-1.476z" fill="#fff"/><path d="M17.502 15.963c2.376.483 5.699-2.347 7.063-3.823l.285.725a7.29 7.29 0 01.507 2.67v2.538a3.927 3.927 0 11-7.855 0v-2.11zM11.033 13.213c-2.798 0-5.566-1.475-6.6-2.213l-.547.695a4.84 4.84 0 00-1.038 2.994h-.406a1.442 1.442 0 000 2.884h.406v.334a4.093 4.093 0 008.185 0v-.334h.34a1.442 1.442 0 000-2.884h-.34v-1.476z" stroke="#FFDF7B"/><path d="M17.646 4.477l-3.29 3.38-3.288-3.38a2.1 2.1 0 013.01-2.93l.279.286.278-.286a2.1 2.1 0 113.011 2.93z" fill="#fff"/></svg>