<svg width="29" height="32" fill="none" xmlns="http://www.w3.org/2000/svg"><path fill-rule="evenodd" clip-rule="evenodd" d="M14.67 17.868h9.098a4.246 4.246 0 100-8.493h-.386v-2.56A6.815 6.815 0 0016.567 0H14.63a7.985 7.985 0 00-7.902 6.838h-.712A6.016 6.016 0 000 12.854a5.013 5.013 0 005.013 5.014h9.656zm7.479.82l-2.317 5.074 1.365.623 2.316-5.074-1.364-.622zm-10.148 0l-2.316 5.074 1.365.623 2.316-5.074-1.364-.622zm-5.624 0L4.06 23.763l1.365.623L7.74 19.31l-1.364-.622zm10.478 0l-2.317 5.074 1.365.623 2.316-5.074-1.364-.622zm5.066 6.927l-2.316 5.074 1.364.622 2.316-5.073-1.364-.623zm-15.772 0l-2.317 5.074 1.365.622 2.316-5.073-1.364-.623zm5.625 0l-2.317 5.074 1.365.622 2.316-5.073-1.364-.623zm4.853 0l-2.317 5.074 1.365.622 2.316-5.073-1.364-.623z" fill="#fff"/></svg>