<svg width="31" height="31" fill="none" xmlns="http://www.w3.org/2000/svg"><path fill-rule="evenodd" clip-rule="evenodd" d="M15.554 2.563a2.285 2.285 0 001.12-.58c.392-.37.747-.977.747-1.983h1.5c0 1.409-.518 2.412-1.216 3.073-.444.42-.945.687-1.4.84V7.52l5.655-3.94-.103 7.21 3.179-1.835a3.821 3.821 0 01.028-1.633c.223-.935.833-1.885 2.053-2.59l.75 1.3c-.872.503-1.22 1.113-1.344 1.638-.12.503-.045.974.058 1.26.195.231.565.531 1.061.68.517.153 1.22.157 2.091-.346l.75 1.299c-1.22.704-2.347.758-3.269.484a3.821 3.821 0 01-1.428-.793l-3.118 1.8 6.262 2.94-6.616 3.338 3.472 2.004a3.82 3.82 0 011.428-.792c.922-.275 2.05-.221 3.27.483l-.75 1.3c-.872-.504-1.575-.5-2.092-.346a2.285 2.285 0 00-1.061.68 2.285 2.285 0 00-.058 1.26c.125.524.473 1.135 1.344 1.638l-.75 1.299c-1.22-.704-1.83-1.654-2.053-2.59a3.82 3.82 0 01-.028-1.633l-3.422-1.976.41 7.295-5.72-3.984v3.707c.456.153.957.42 1.4.84.7.661 1.217 1.665 1.217 3.074h-1.5c0-1.007-.355-1.613-.747-1.984a2.286 2.286 0 00-1.12-.58 2.286 2.286 0 00-1.12.58c-.391.37-.746.977-.746 1.984h-1.5c0-1.41.517-2.413 1.216-3.074a3.82 3.82 0 011.4-.84V22.97l-5.677 3.954.205-7.17-3.26 1.881c.095.472.114 1.04-.027 1.634-.223.935-.834 1.885-2.054 2.589l-.75-1.3c.872-.502 1.22-1.113 1.345-1.637.12-.504.045-.974-.058-1.26a2.286 2.286 0 00-1.062-.68c-.517-.154-1.22-.158-2.091.345l-.75-1.299c1.22-.704 2.348-.758 3.27-.483a3.821 3.821 0 011.427.792l3.215-1.856-6.359-2.984 6.523-3.292-3.379-1.95c-.36.318-.843.619-1.428.793-.921.274-2.049.22-3.269-.484l.75-1.299c.872.503 1.574.5 2.091.345a2.285 2.285 0 001.062-.68c.103-.285.178-.756.058-1.26-.125-.524-.473-1.134-1.345-1.638l.75-1.299c1.22.705 1.83 1.655 2.054 2.59.141.594.123 1.162.027 1.633l3.429 1.98-.417-7.4 5.72 3.985V3.914a3.821 3.821 0 01-1.4-.841c-.699-.66-1.216-1.664-1.216-3.073h1.5c0 1.006.355 1.613.747 1.983.376.356.82.526 1.12.58zm2.468 15.023l2.039 1.177.293 5.2-4.05-2.82v-2.565a3.35 3.35 0 001.718-.992zm2.74-.15l4.742-2.393-4.42-2.075-2.312 1.335a3.351 3.351 0 01.149.965 3.34 3.34 0 01-.149 1.019l1.99 1.149zm-4.458-5.423V9.348l4.114-2.866-.074 5.182-2.322 1.34a3.343 3.343 0 00-.716-.584 3.347 3.347 0 00-.963-.398l-.039-.01zm-6.05 1.088l-4.65 2.346 4.516 2.12 2.216-1.28a3.346 3.346 0 010-1.983L10.254 13.1zm4.55 5.477v2.564l-4.093 2.85.147-5.12 2.228-1.286a3.343 3.343 0 00.675.559c.316.2.668.347 1.043.433zm0-9.23l-4.05-2.82.3 5.303 2.032 1.173a3.365 3.365 0 011.718-.991V9.348z" fill="#fff"/></svg>