<svg width="27" height="23" fill="none" xmlns="http://www.w3.org/2000/svg"><path fill-rule="evenodd" clip-rule="evenodd" d="M22.168 3.839a3.414 3.414 0 00-4.834 0 5.414 5.414 0 01-7.666 0 3.414 3.414 0 00-4.834 0L1.709 6.97.293 5.56l3.125-3.133a5.414 5.414 0 017.666 0 3.414 3.414 0 004.834 0 5.414 5.414 0 017.666 0l3.125 3.133-1.416 1.412-3.125-3.132zm0 7.867a3.414 3.414 0 00-4.834 0 5.414 5.414 0 01-7.666 0 3.414 3.414 0 00-4.834 0L1.709 14.84.293 13.426l3.125-3.132a5.414 5.414 0 017.666 0 3.414 3.414 0 004.834 0 5.414 5.414 0 017.666 0l3.125 3.132-1.416 1.413-3.125-3.133zm-12.5 7.868a3.414 3.414 0 00-4.834 0l-3.125 3.132-1.416-1.412 3.125-3.133a5.414 5.414 0 017.666 0 3.414 3.414 0 004.834 0 5.414 5.414 0 017.666 0l3.125 3.133-1.416 1.412-3.125-3.132a3.414 3.414 0 00-4.834 0 5.414 5.414 0 01-7.666 0z" fill="#fff"/></svg>