<svg width="45" height="34" fill="none" xmlns="http://www.w3.org/2000/svg"><path fill-rule="evenodd" clip-rule="evenodd" d="M22.016 13c-1.333-.167-4.6.2-7 3-1 1-3.8 2.4-7 0 0 .667.2 2.2 1 3 1 1 3.5 2 6 1-.667 1.333-1.4 4.4 1 6 .667.667 2 2.6 2 5s2.667 3 4 3c1.333 0 4-.6 4-3s1.333-4.333 2-5c2.4-1.6 1.667-4.667 1-6 2.5 1 5 0 6-1 .8-.8 1-2.333 1-3-3.2 2.4-6 1-7 0-2.4-2.8-5.667-3.167-7-3zm-1 17.5l1 .5 1-.5c0-.333.2-1 1-1l-.5-1c-.333 0-1.1.1-1.5.5-.4-.4-1.167-.5-1.5-.5l-.5 1c.8 0 1 .667 1 1zm-1-7.5c-.167-.833-1-2.5-3-2.5-.167 1.167.2 3.3 3 2.5zm4 0c.167-.833 1-2.5 3-2.5.167 1.167-.2 3.3-3 2.5zM20.516 11c-1.333.333-4.3 1.4-5.5 3-.187-.81-.64-1.924-1.426-3 .147-1.667-.361-5.3-3.574-6.5 6.8-1.6 9.833 3.667 10.5 6.5zM8.5 4.777c3.2 1.821 3.667 3.795 3.5 4.555C10.678 8.274 8.883 7.5 6.516 7.5A8.07 8.07 0 015 7.364c-.5-.37-1.6-1.585-2-3.487 1.315.762 3.112 1.202 5.5.9zM1.814 3C.775 2.031.217.872.016 0c-.12 1.804.402 4.91 2.807 6.5C1.88 5.3 1.758 3.667 1.814 3zM23.516 11c1.333.333 4.3 1.4 5.5 3 .187-.81.64-1.924 1.426-3-.147-1.667.36-5.3 3.574-6.5-6.8-1.6-9.833 3.667-10.5 6.5zm12.016-6.223c-3.2 1.821-3.667 3.795-3.5 4.555C33.354 8.274 35.149 7.5 37.516 7.5c.547 0 1.052-.048 1.516-.136.5-.37 1.6-1.585 2-3.487-1.315.762-3.112 1.202-5.5.9zM42.218 3c1.038-.969 1.596-2.128 1.798-3 .12 1.804-.402 4.91-2.807 6.5.942-1.2 1.065-2.833 1.009-3.5z" fill="#fff"/></svg>