<svg width="30" height="32" fill="none" xmlns="http://www.w3.org/2000/svg"><path fill-rule="evenodd" clip-rule="evenodd" d="M15 1c-.333-.333-1.6-1-4-1 .5.334 1.4 1.2 1 2-.667-.166-2.5-.2-4.5 1C5 4.5 4.5 5 3 5l1.5.5C3.167 6.5.6 9.6 1 14c0 .834-.2 2.7-1 3.5l2-.5c.5.667 1.4 2.6 1 5-.5 3 5.5 4 5.5 8l2-3.5c0 .667.3 2.2 1.5 3 1.5 1 2.5 1.5 3 2.5.5-1 1.5-1.5 3-2.5 1.2-.8 1.5-2.333 1.5-3l2 3.5c0-4 6-5 5.5-8-.4-2.4.5-4.333 1-5l2 .5c-.8-.8-1-2.667-1-3.5.4-4.4-2.167-7.5-3.5-8.5L27 5c-1.5 0-2-.5-4.5-2-2-1.2-3.833-1.167-4.5-1-.4-.8.5-1.667 1-2-2.4 0-3.667.667-4 1zM9.5 8c1.6-1.2 4.333-.5 5.5 0 1.167-.5 3.9-1.2 5.5 0-.333 1.5-.2 4.5 3 4.5.167.667.3 2.2-.5 3-1 1-1 1-1 2.5 0 1.415-.445 5.502-5.537 4.278-.58-.14-.963-.68-.963-1.278v-1c.167-.5.3-1.5 1.5-1.5-.306-.613-.983-1.128-1.589-.809A1.703 1.703 0 0015 18a1.703 1.703 0 00-.411-.309c-.606-.32-1.283.196-1.589.809 1.2 0 1.333 1 1.5 1.5v1c0 .597-.383 1.139-.963 1.278C8.445 23.502 8 19.415 8 18c0-1.5 0-1.5-1-2.5-.8-.8-.667-2.333-.5-3 3.2 0 3.333-3 3-4.5zM15 22.5c-1.2 1.2-2.833 1.167-3.5 1 .167.667 1.1 2 3.5 2s3.333-1.333 3.5-2c-.667.167-2.3.2-3.5-1zm-9-11c2.8-.4 2.833-3.167 2.5-4.5-.667-.833-2.4-2-4 0s.333 3.833 1.5 4.5zm18 0c-2.8-.4-2.833-3.167-2.5-4.5.667-.833 2.4-2 4 0s-.333 3.833-1.5 4.5z" fill="#fff"/><path d="M23.5 10c.5-.5 1.4-1.7 1-2.5-.4-.8-1.5 0-2 .5l.5 1 .5 1zM6.5 10c-.5-.5-1.4-1.7-1-2.5.4-.8 1.5 0 2 .5L7 9l-.5 1zM10 13c.833-.167 2.6 0 3 2-.833.333-2.6.4-3-2zM20 13c-.833-.167-2.6 0-3 2 .833.333 2.6.4 3-2z" fill="#fff"/></svg>