<svg width="32" height="36" fill="none" xmlns="http://www.w3.org/2000/svg"><circle cx="16.431" cy="17.627" r="9.741" transform="rotate(49.059 16.431 17.627)" fill="#7F38EA"/><path d="M13.793 20.088c7.239 8.343 14.29 14.08 15.75 12.814.923-.8-.551-4.258-3.631-8.765l-.518.45c2.025 3.102 3.022 5.32 2.56 5.721-.834.724-6.498-4.439-12.65-11.53C9.152 11.684 4.841 5.347 5.675 4.624c.499-.433 2.86 1.122 5.993 3.959l.482-.31C7.804 4.192 4.306 1.843 3.331 2.688c-1.46 1.266 3.224 9.057 10.462 17.4z" fill="#E38CF9"/></svg>