<svg width="155" height="39" fill="none" xmlns="http://www.w3.org/2000/svg"><g clip-path="url(#clip0)" fill="#2F056E"><path d="M50.125 36.761c1.5 1.482 3.462 2.24 5.913 2.24 1.623 0 2.972-.424 4.014-1.271 1.041-.849 1.562-1.937 1.562-3.237.03-2.906-2.942-4.086-5.178-4.782-1.563-.575-2.819-1.301-2.819-2.39 0-1.24 1.042-1.907 2.636-1.907 1.439 0 3.032.515 3.92 1.362l1.195-2.118c-1.255-1.12-2.94-1.695-5.025-1.695-3.186 0-5.575 1.634-5.575 4.418 0 2.966 2.91 3.995 5.147 4.812 1.563.575 2.819 1.3 2.819 2.36 0 1.24-1.042 1.996-2.635 1.996-1.807 0-3.309-.605-4.565-1.784l-1.41 1.996zm15.663-3.722c0 3.057 1.44 4.539 3.003 5.204 1.134.455 1.992.545 2.942.545.214 0 .55-.03 1.041-.09v-2.603a3.949 3.949 0 01-2.36-.272c-.857-.393-1.653-1.301-1.653-3.117V25.87H72.5v-2.39H68.76V19.12h-2.91v4.357h-2.083v2.39h2.021v7.17zm13.01 5.598v-6.355c0-1.664.398-3.117 1.195-4.358.828-1.24 1.992-1.875 3.554-1.875.4 0 .705.03.86.06v-2.904c-.338-.03-.583-.06-.798-.06-2.298 0-4.167 1.724-4.933 4.055h-.061l.092-1.12v-2.753h-2.88v15.31h2.972zm7.058-7.686c0 2.3.796 4.207 2.42 5.75C89.9 38.242 91.892 39 94.22 39c2.33 0 4.29-.758 5.913-2.3 1.624-1.543 2.421-3.45 2.421-5.75 0-2.299-.797-4.205-2.421-5.718-1.624-1.513-3.584-2.27-5.943-2.27-2.329 0-4.29.757-5.914 2.3-1.623 1.513-2.42 3.42-2.42 5.688zm3.033 0c0-1.573.52-2.874 1.533-3.902 1.041-1.03 2.297-1.544 3.799-1.544 1.47 0 2.726.515 3.768 1.544 1.041 1.028 1.562 2.33 1.562 3.902 0 1.574-.52 2.875-1.562 3.934-1.042 1.06-2.298 1.573-3.768 1.573-1.502 0-2.758-.514-3.8-1.543-1.011-1.059-1.532-2.36-1.532-3.963zm20.219 7.686v-7.14c0-1.544.428-2.906 1.286-4.086.858-1.18 1.992-1.784 3.37-1.784 2.114 0 2.666 1.422 2.666 3.841v9.17h2.972v-7.141c0-1.544.429-2.906 1.255-4.086.858-1.18 1.962-1.784 3.34-1.784 2.114 0 2.727 1.391 2.727 3.841v9.17h2.972v-9.804c0-3.965-1.593-5.87-5.116-5.87a5.793 5.793 0 00-3.34 1.029c-1.011.695-1.716 1.512-2.175 2.45h-.061c-.521-2.33-2.084-3.48-4.626-3.48-1.165 0-2.268.364-3.279 1.09-1.011.726-1.716 1.573-2.114 2.511h-.061l.092-1.15v-2.087h-2.88v15.31h2.972zm26.534-18.396c.398 0 .78-.156 1.062-.434a1.472 1.472 0 000-2.098 1.513 1.513 0 00-1.062-.434h-.061c-.398 0-.78.156-1.062.434a1.475 1.475 0 000 2.097c.282.278.664.434 1.062.434h.061v.001zm1.47 18.396v-15.31h-2.972v15.31h2.972zm6.162 0l3.247-5.114.46-.817h.061l.491.817 3.247 5.114h3.37l-5.3-7.867 4.993-7.443h-3.4l-2.88 4.66c-.154.273-.307.575-.521.906h-.061l-.491-.907-2.88-4.66h-3.4l4.994 7.444-5.301 7.867h3.371zm-110.203 0l6.28-21.865 6.22 21.865h3.125L40.945 13.15h-3.218l-7.75 25.488h3.094z"/><path fill-rule="evenodd" clip-rule="evenodd" d="M53.144 9.307c.435-1.713.247-2.925-.241-3.776-.49-.852-1.444-1.635-3.155-2.149-1.731-.52-4.065-.702-6.915-.429-5.692.546-12.893 2.86-20.157 6.92C15.41 13.936 9.697 18.843 6.293 23.38c-1.704 2.272-2.747 4.343-3.187 6.076-.434 1.715-.247 2.926.242 3.777.489.852 1.442 1.635 3.154 2.149 1.732.52 4.066.702 6.915.429 5.693-.546 12.894-2.86 20.158-6.921 7.265-4.06 12.978-8.968 16.383-13.507 1.704-2.271 2.746-4.342 3.186-6.076zM34.986 31.351c15.06-8.42 24.198-20.603 20.407-27.212-3.788-6.61-19.068-5.145-34.128 3.274C6.205 15.832-2.932 28.015.856 34.625c3.79 6.61 19.07 5.145 34.13-3.274z"/></g><defs><clipPath id="clip0"><path fill="#fff" d="M0 0h155v39H0z"/></clipPath></defs></svg>