<svg width="46" height="28" fill="none" xmlns="http://www.w3.org/2000/svg"><path d="M29.184 3.212H16.996V24.21h12.188V3.212z" fill="#FF5F00"/><path d="M17.769 13.713c0-4.266 2.09-8.05 5.3-10.499A14.223 14.223 0 0014.48.357C6.78.357.552 6.33.552 13.713S6.78 27.068 14.48 27.068c3.25 0 6.23-1.075 8.59-2.856-3.212-2.412-5.301-6.233-5.301-10.5z" fill="#EB001B"/><path d="M45.626 13.711c0 7.383-6.23 13.356-13.929 13.356-3.25 0-6.23-1.076-8.59-2.857 3.25-2.449 5.301-6.233 5.301-10.499 0-4.266-2.09-8.05-5.3-10.499a14.223 14.223 0 018.59-2.857c7.699 0 13.928 6.01 13.928 13.356z" fill="#F79E1B"/></svg>