<svg width="31" height="31" fill="none" xmlns="http://www.w3.org/2000/svg"><path fill-rule="evenodd" clip-rule="evenodd" d="M19.985 6.507a1 1 0 01-1.393-.508l-1.925-4.725c-.338-.83-1.514-.83-1.852 0L12.89 5.999a1 1 0 01-1.393.508L6.985 4.124c-.793-.419-1.694.337-1.42 1.19l1.564 4.858a1 1 0 01-.741 1.284L1.399 12.53c-.876.189-1.08 1.347-.321 1.824l4.32 2.716a1 1 0 01.257 1.46l-3.13 4.03c-.55.708.037 1.727.926 1.604l5.055-.696a1 1 0 011.135.953l.193 5.1c.034.896 1.139 1.298 1.74.633L15 26.373a1 1 0 011.482 0l3.425 3.782c.602.665 1.707.262 1.741-.634l.192-5.099a1 1 0 011.136-.953l5.055.696c.889.123 1.477-.896.927-1.604l-3.13-4.03a1 1 0 01.257-1.46l4.32-2.716c.758-.477.554-1.635-.322-1.824l-4.988-1.075a1 1 0 01-.742-1.284l1.563-4.858c.275-.853-.626-1.609-1.419-1.19l-4.512 2.383zm-4.244 15a5.507 5.507 0 100-11.014 5.507 5.507 0 000 11.014z" fill="#fff"/></svg>