<svg width="24" height="25" fill="none" xmlns="http://www.w3.org/2000/svg"><path d="M.944 21.083c0 1.805 1.388 3.194 3.194 3.194h16.389c1.805 0 3.194-1.389 3.194-3.194V10.666H.805v10.417h.139zm17.638-7.5c.556 0 1.111.416 1.111 1.11 0 .556-.416 1.112-1.11 1.112-.556 0-1.112-.417-1.112-1.111.14-.556.556-1.111 1.111-1.111zm-6.25 0c.556 0 1.111.416 1.111 1.11 0 .556-.416 1.112-1.11 1.112-.556 0-1.112-.417-1.112-1.111.14-.556.556-1.111 1.111-1.111zm0 5.139c.556 0 1.111.416 1.111 1.11 0 .556-.416 1.112-1.11 1.112-.556 0-1.112-.417-1.112-1.111 0-.695.556-1.111 1.111-1.111zm-6.25-5.14c.556 0 1.112.417 1.112 1.112 0 .555-.417 1.11-1.112 1.11-.555 0-1.11-.416-1.11-1.11.138-.556.555-1.111 1.11-1.111zm0 5.14c.556 0 1.112.416 1.112 1.11 0 .556-.417 1.112-1.112 1.112-.555 0-1.11-.417-1.11-1.111.138-.695.555-1.111 1.11-1.111zM20.527 3.583H17.75V1.5c0-.556-.417-1.111-1.112-1.111-.694 0-1.11.416-1.11 1.11v2.084H8.721V1.5C8.722.944 8.305.389 7.61.389 6.916.389 6.5.805 6.5 1.499v2.084H3.722C1.916 3.583.527 4.972.527 6.778v2.638h22.917V6.778c.417-1.806-1.111-3.195-2.917-3.195z" fill="#fff"/></svg>