<svg width="30" height="31" fill="none" xmlns="http://www.w3.org/2000/svg"><path fill-rule="evenodd" clip-rule="evenodd" d="M14.614 15.943H4.58c-2.558 0-4.763-1.96-4.335-4.481C1.142 6.172 4.725 0 14.615 0c9.888 0 13.472 6.173 14.369 11.462.427 2.522-1.777 4.48-4.335 4.48H14.614zm0-2.654a2.214 2.214 0 100-4.43 2.214 2.214 0 000 4.43zm-8.857 0a2.214 2.214 0 100-4.43 2.214 2.214 0 000 4.43zm17.616 0a2.214 2.214 0 100-4.429 2.214 2.214 0 000 4.429zm-13-5.286a2.214 2.214 0 100-4.429 2.214 2.214 0 000 4.429zm8.714 0a2.214 2.214 0 100-4.429 2.214 2.214 0 000 4.429z" fill="#fff"/><path d="M9.966 25.35L11.213 19h6.804l1.246 6.35a4.737 4.737 0 11-9.297 0z" fill="#fff"/></svg>