<svg width="40" height="29" fill="none" xmlns="http://www.w3.org/2000/svg"><path d="M8 0c7.2 1.2 10.333 6.167 11 8.5L13.5 11l-1-3.5c0-4-3-6.667-4.5-7.5zM32 0c-7.2 1.2-10.333 6.167-11 8.5l5.5 2.5 1-3.5c0-4 3-6.667 4.5-7.5zM6.5 0c2.4 2 3.667 4.833 4 6-2-1.167-6-2.5-6 1.5s1.333 7.667 2 9c-2.167-.667-6.5-3.4-6.5-9S4.333.167 6.5 0zM33.5 0c-2.4 2-3.667 4.833-4 6 2-1.167 6-2.5 6 1.5s-1.333 7.667-2 9c2.167-.667 6.5-3.4 6.5-9S35.667.167 33.5 0z" fill="#fff"/><path d="M28.06 8.44c-.508.32-.893.633-1.16.905C24.434 7.868 21.315 7.5 20.001 7.5s-4.434.368-6.9 1.845a6.49 6.49 0 00-1.158-.905c-.776-.49-1.862-1.009-3.305-1.42l-.56-.161-.073.579c-.091.729-.064 1.88.308 3.017.338 1.034.972 2.089 2.087 2.782-.431 1.573-.486 4.528 2.118 6.528.12 1.467.595 3.546 1.668 5.308 1.144 1.875 2.994 3.427 5.815 3.427 2.82 0 4.671-1.552 5.814-3.427 1.074-1.762 1.548-3.84 1.668-5.308 2.605-2 2.55-4.955 2.119-6.528 1.115-.693 1.749-1.748 2.087-2.782.372-1.138.4-2.288.308-3.017l-.072-.58-.561.161c-1.443.412-2.529.931-3.305 1.42zM15.42 15.569c.461.131.82.472.983.901-.934-.097-1.506-.42-1.85-.762a1.95 1.95 0 01-.362-.49l1.23.35zm10.028.138c-.345.343-.917.666-1.85.763.163-.429.52-.77.982-.901l1.229-.352a1.95 1.95 0 01-.361.49zm-6.17 6.345a.499.499 0 01.222-.052h1c.08 0 .155.019.221.052-.417.136-.72.528-.721.99a1.047 1.047 0 00-.722-.99z" fill="#fff" stroke="#FF9E67"/></svg>