<svg width="37" height="34" fill="none" xmlns="http://www.w3.org/2000/svg"><path d="M15 11a1.5 1.5 0 11-3 0 1.5 1.5 0 013 0z" fill="#fff"/><path fill-rule="evenodd" clip-rule="evenodd" d="M8.092 9.577l-.529 1.585 1.389.834c-.134.098-.26.205-.375.32-.342.342-.552.826-.67 1.356-.12.537-.153 1.16-.108 1.828l-.898-.338c-.122-.31-.236-.643-.338-1-.835-.557-1.461-3.115-.945-5.575l2.474.99z" fill="#fff"/><path d="M8.51 8.5c1.2-2.4 4.167-4.333 5.5-5h-4l4.5-3.5c-9.2 0-9.5 5-8.5 7.5l2.5 1zM3 10.5c.301 4.519 2.417 6.201 4.94 6.757.107.51.255 1.034.444 1.561C2.938 17.828 1.5 13.032 1.5 10.5H3z" fill="#fff"/><path d="M1 15.5c1.602 2.884 5.235 4.035 7.817 4.379a12.629 12.629 0 00.872 1.573C4.106 21.038.929 18.05 0 16.5l1-1z" fill="#fff"/><path fill-rule="evenodd" clip-rule="evenodd" d="M13.824 25.122c-2.184 1.257-3.655 3.466-2.694 7.792l-1.44.422c-.632-2.16-.678-6.352 2.79-9.002.418.296.866.56 1.344.788zM6.564 28c.322-1.236 1.52-3.479 4.047-5.382.308.362.643.707 1.005 1.03-1.721 1.184-3.321 2.859-3.812 5.03L6.564 28z" fill="#fff"/><path d="M21.002 11a1.5 1.5 0 103 0 1.5 1.5 0 00-3 0z" fill="#fff"/><path fill-rule="evenodd" clip-rule="evenodd" d="M27.91 9.577l.529 1.585-1.389.834c.134.098.26.205.375.32.342.342.552.826.67 1.356.12.537.153 1.16.108 1.828l.898-.338c.122-.31.236-.643.338-1 .835-.557 1.461-3.115.945-5.575l-2.474.99z" fill="#fff"/><path d="M27.492 8.5c-1.2-2.4-4.167-4.333-5.5-5h4l-4.5-3.5c9.2 0 9.5 5 8.5 7.5l-2.5 1zM33.002 10.5c-.301 4.519-2.417 6.201-4.939 6.757-.108.51-.256 1.034-.444 1.561 5.445-.99 6.883-5.786 6.883-8.318h-1.5z" fill="#fff"/><path d="M35.002 15.5c-1.602 2.884-5.235 4.035-7.817 4.379a12.489 12.489 0 01-.872 1.573c5.584-.414 8.76-3.403 9.69-4.952l-1-1z" fill="#fff"/><path fill-rule="evenodd" clip-rule="evenodd" d="M22.178 25.122c2.184 1.257 3.655 3.466 2.694 7.792l1.44.422c.633-2.16.679-6.352-2.79-9.002-.418.296-.866.56-1.344.788zM29.438 28c-.322-1.236-1.52-3.479-4.047-5.382-.308.362-.643.707-1.004 1.03 1.72 1.184 3.32 2.859 3.81 5.03L29.44 28z" fill="#fff"/><path d="M9.354 13.357c.362-.362.931-.649 1.666-.863a8.47 8.47 0 01.418-.11 2.5 2.5 0 004.38-.398c.512-.002.99.004 1.41.01.287.004 1.321 0 1.546 0 .42-.006.898-.012 1.41-.01a2.5 2.5 0 004.38.399c.143.033.283.07.418.11.735.213 1.304.5 1.666.862.159.158.307.44.402.866.093.42.126.945.086 1.543-.081 1.196-.453 2.632-1.144 4.013-1.38 2.762-3.985 5.224-7.991 5.224s-6.61-2.462-7.99-5.224c-.692-1.381-1.063-2.817-1.145-4.013-.04-.598-.007-1.122.086-1.543.095-.427.243-.708.402-.866z" fill="#fff"/></svg>