<svg width="29" height="37" fill="none" xmlns="http://www.w3.org/2000/svg"><path fill-rule="evenodd" clip-rule="evenodd" d="M6.29 6.19c-.055-.842.506-1.122 1.124-1.403 1.404-.618 5.898-.45 5.898-.337-.169-3.09 3.538-4.606 4.605-4.437 1.123.168-1.01 3.37-1.01 3.37l1.122-.281s0 .056-.28.505c-.281.45-1.292 1.18-1.292 1.18 2.527.112 4.212 1.348 4.212 1.348s1.067-.506 2.022-.281c.955.225 2.079 1.011 2.247 1.18.112.168-1.011.168-1.685.056-.674-.113-.45.056-.45.056 3.82 2.19 5.561 6.234 5.674 8.2.112 1.966-.057 3.539-.562 4.606-.506 1.067-.281 2.359-.281 2.359l-.786-.899s-.562.618-.787 1.629c-.224 1.01.787 2.022.787 2.022-1.966-.562-1.798-3.651-1.798-3.651s-1.404.899-2.471 1.123c-1.067.225-1.741 0-1.741 0 .056-1.404 1.404-3.538 3.145-3.931.25-.057.47-.1.664-.137 1.166-.226 1.455-.281 2.032-2.11.532-1.685-.511-2.705-1.61-3.779-.293-.286-.59-.576-.861-.883-.981-1.11-1.963-.89-2.501-.77-.17.039-.296.067-.364.04-.28-.112.562 2.303.562 2.303s-.112.056-1.123-.618c-.594-.395-.703-1.1-.784-1.615-.056-.363-.098-.632-.284-.632-.393 0-4.774.169-4.774.169.787 1.123.225 3.988-.561 5.111-.73 1.123-1.742.506-1.742.506s.394-.9.225-2.472c-.094-.879-.293-1.214-.49-1.545-.156-.26-.31-.518-.409-1.038-.224-1.236-.28-1.405-.28-1.405s-.562-.112-1.405-.393a6.467 6.467 0 01-2.19-1.292c-.154-.154-.377-.303-.613-.462-.537-.36-1.145-.767-1.184-1.391zm14.442 26.146l-.063.029c-.974.39-3.434.346-4.888.321-.642-.011-1.087-.019-1.122.016.057 3.145-3.707 4.437-4.774 4.268-1.067-.168 1.18-3.314 1.18-3.314l-1.124.225.281-.45c.281-.505 1.348-1.179 1.348-1.179-2.527-.168-4.156-1.46-4.156-1.46s-1.067.45-2.022.168c-.955-.28-2.022-1.123-2.19-1.291-.113-.169 1.01-.169 1.684 0 .674.168.45-.057.45-.057C1.629 27.254.056 23.153 0 21.188c0-1.91.168-3.539.73-4.55.506-1.011.337-2.303.337-2.303l.73.899s.562-.618.843-1.629c.28-1.067-.674-2.078-.674-2.078 1.966.674 1.685 3.707 1.685 3.707s1.404-.899 2.471-1.067c1.123-.225 1.741.056 1.741.056-.168 1.348-1.572 3.426-3.314 3.763-.2.032-.381.058-.545.081-1.255.179-1.511.215-2.207 2.053-.626 1.655.386 2.74 1.448 3.879.272.291.547.586.799.896.989 1.16 1.977.972 2.513.87.164-.031.286-.054.351-.028.225.168-.505-2.303-.505-2.303s.112 0 1.123.674c.612.408.71 1.144.778 1.663.045.338.078.584.233.584h4.774c-.786-1.18-.056-4.044.73-5.111.843-1.124 1.798-.45 1.798-.45s-.45.899-.337 2.472c.092.858.284 1.198.468 1.521.152.27.298.527.374 1.062.169 1.236.225 1.404.225 1.404s.618.169 1.404.45c.843.337 1.573.898 2.135 1.404.146.146.353.293.574.448.543.383 1.167.823 1.167 1.462 0 .813-.524 1.05-1.117 1.32z" fill="#fff"/></svg>