<svg width="24" height="35" fill="none" xmlns="http://www.w3.org/2000/svg"><path d="M.58 13.578c-2.993 13.965 6.327 19.765 11.36 20.92 5.034-1.154 14.354-6.955 11.361-20.92l-5.819 1.108c.785-2.725.776-9.477-5.541-14.686-6.318 5.21-6.327 11.961-5.542 14.686l-5.82-1.108z" fill="#fff"/><path d="M12.08 34.498V30.34m0-27.51v7.144m0 20.366L2.738 21m9.342 9.341v-5.819m0 5.82L21.42 21m-9.341 3.523l-6.386-6.386m6.386 6.386v-7.898m0 7.898l6.386-6.386m-6.386-1.512L8.454 13m3.626 3.625v-6.65m0 6.65L15.705 13M12.08 9.975L9.605 7.5m2.475 2.475L14.555 7.5" stroke="#FF9E67" stroke-width="1.5"/></svg>