<svg width="25" height="38" fill="none" xmlns="http://www.w3.org/2000/svg"><path fill-rule="evenodd" clip-rule="evenodd" d="M3.078 4.03l-2-.5c1.2-3.2 4.5-3.667 6-3.5-2.4.8-3.666 3-4 4zm-3 5l1.5.5c.167-.5.9-1.5 2.5-1.5s3.334-3.334 4-5c-1.166.833-3.8 2.4-5 2-1.5-.5-3.5 1-3 4zm7.5 0l.5 2.5c-1.833 1.333-5.9 3-7.5-1l7-1.5zm13.5-5l2-.5c-1.2-3.2-4.5-3.667-6-3.5 2.4.8 3.667 3 4 4zm3 5l-1.5.5c-.166-.5-.9-1.5-2.5-1.5s-3.333-3.334-4-5c1.167.833 3.8 2.4 5 2 1.5-.5 3.5 1 3 4zm-7.5 0l-.5 2.5c1.834 1.333 5.9 3 7.5-1l-7-1.5zm-4.5 16.47c.368 0 .725-.044 1.067-.127-.268.66-.617 2.256-.91 3.603-.109.495-.21.956-.296 1.324-.343 1.457-.475 2.953-.16 4.128.175.654.518 1.033.931 1.254.436.234 1.013.323 1.672.259a5.659 5.659 0 002.81-1.122l.317-2.626h3.959l-1.653 3.753-1.243-.348c-.98.975-2.559 1.692-4.045 1.836-.855.083-1.752-.016-2.524-.43-.795-.424-1.396-1.151-1.674-2.188-.41-1.53-.213-3.314.15-4.859.118-.502.235-1.091.354-1.688.213-1.065.43-2.152.662-2.806.19.024.386.037.583.037zm-6.823-9.11h2.323v1.5H4.774l-3.696-2.64.872-1.22 3.305 2.36zm5.774 8.987a4.477 4.477 0 01-1.446-.631L7.55 27.032 4.679 28.47l.67 1.341 3.13-1.564 2.55-2.87zm-4.653-4.613l1.202-1.052V21c0 .225.017.446.049.663l-.974.852-3.934-1.686.59-1.379 3.067 1.314zm1.544 1.958l-1.162.697-3.35.478.212 1.485 3.65-.521 1.447-.869a4.503 4.503 0 01-.797-1.27zm8.254 5.524l-2.651-2.983a4.488 4.488 0 001.352-.737l2.229 2.507 2.87 1.436-.67 1.341-3.13-1.564zm-.568-4.452l1.777 1.067 3.65.521.212-1.485-3.35-.478-1.565-.94c-.168.48-.414.925-.724 1.315zm1.344-7.404l-.372-.372v1.872h3.301l3.696-2.64-.872-1.22-3.304 2.36h-2.45zm1.328 4.374l-1.7-1.486V21c0 .089-.002.177-.007.264l1.43 1.25 3.933-1.685-.59-1.379-3.066 1.314zm.839 13.046l-.536.026.01.21.376.105.15-.341zM10.058 8.826a4.51 4.51 0 00.01 1.576l.053.263-.225.224a4.5 4.5 0 00-1.318 3.182v6.93a3.5 3.5 0 007 0v-6.93a4.5 4.5 0 00-1.318-3.182l-.224-.224.052-.263c.073-.366.119-.977.01-1.576a2.95 2.95 0 00-.184-.637L13.512 11h-2.867l-.402-2.81c-.083.194-.144.41-.185.636z" fill="#fff"/></svg>