<svg width="39" height="33" fill="none" xmlns="http://www.w3.org/2000/svg"><path d="M1.354 3.146L.5 2.293V3.5c0 2.767 2.398 8.353 11.41 9.992l.427.077.137-.41 2-6 .366-1.097-1.05.484c-1.997.922-7.4 1.637-12.436-3.4zM37.146 2.646L38 1.793V3c0 2.767-2.398 8.353-11.41 9.992l-.427.077-.137-.41-2-6-.366-1.097 1.05.484c1.997.922 7.4 1.637 12.436-3.4z" fill="#fff" stroke="#FF9E67"/><path d="M18.196 5.159l-.12.48.12-.48c-1.752-.438-3.76-.176-5.035 1.288-1.248 1.432-2.487 3.514-2.644 6.02-.939-.044-2.2-.004-3.447.229-1.478.277-3.045.848-3.96 1.992l-.262.326.276.315A8.766 8.766 0 006.3 17.564c1.24.497 2.715.707 4.236.174.044.478.13 1.052.277 1.655.234.961.63 2.033 1.286 2.907 1.456 1.94 1.9 3.338 1.9 4.7 0 .835.272 2.19 1.091 3.35.838 1.188 2.236 2.15 4.409 2.15 2.173 0 3.57-.962 4.409-2.15C24.727 29.19 25 27.836 25 27c0-1.362.445-2.76 1.9-4.7.656-.874 1.052-1.946 1.286-2.907.147-.603.233-1.177.277-1.655 1.52.533 2.997.323 4.236-.174a8.766 8.766 0 003.177-2.235l.276-.315-.262-.326c-.915-1.144-2.482-1.715-3.96-1.992a15.537 15.537 0 00-3.447-.23c-.157-2.505-1.396-4.587-2.644-6.02-1.275-1.463-3.283-1.725-5.035-1.287l-1.304.326-1.304-.326zm-8.445 9.907a.645.645 0 01-.054.476.37.37 0 01-.3.193 4.925 4.925 0 01-2.905-.66c.579-.218 1.45-.451 2.574-.54.303-.023.6.189.685.53zm20.183-.53c1.124.088 1.995.321 2.574.54a4.925 4.925 0 01-2.904.659.37.37 0 01-.3-.193.644.644 0 01-.055-.476c.085-.342.382-.554.685-.53zm-6.527 3.898c.402-.529 1.074-1.178 2.083-1.675-.054.268-.168.551-.37.805-.29.366-.805.726-1.713.87zm-9.897-1.675c1.009.497 1.681 1.146 2.084 1.675-.909-.144-1.424-.504-1.715-.87a1.888 1.888 0 01-.369-.805z" fill="#fff" stroke="#FF9E67"/></svg>