<svg width="40" height="32" fill="none" xmlns="http://www.w3.org/2000/svg"><path fill-rule="evenodd" clip-rule="evenodd" d="M20 0l3.06 3.06-1.25 1.25H34v1.5h-1.25v5.991l5.34 6.796-1.18.927-4.91-6.25-4.91 6.25-1.18-.927 5.34-6.796v-5.99h-10.5v24.5H27v1.5H13v-1.5h6.25V5.81H8.75v5.99l5.34 6.796-1.18.927L8 13.274l-4.91 6.25-1.18-.927 5.34-6.796v-5.99H6v-1.5h12.19l-1.25-1.25L20 0zm0 4l.94-.94-.94-.939-.94.94L20 4z" fill="#fff"/><path d="M40 18.06H24a8 8 0 1016 0zM16 18.06H0a8 8 0 1016 0z" fill="#fff"/></svg>