<svg width="66" height="21" fill="none" xmlns="http://www.w3.org/2000/svg"><path d="M28.571 20.44h-5.274l3.299-19.393h5.274L28.571 20.44zM47.691 1.521c-1.04-.392-2.69-.826-4.73-.826-5.21 0-8.877 2.641-8.9 6.416-.043 2.786 2.626 4.333 4.623 5.262 2.04.949 2.734 1.568 2.734 2.414-.02 1.3-1.649 1.898-3.167 1.898-2.106 0-3.235-.309-4.95-1.031l-.694-.31-.738 4.353c1.237.536 3.516 1.011 5.883 1.032 5.534 0 9.137-2.6 9.18-6.623.02-2.207-1.389-3.9-4.428-5.281-1.844-.888-2.974-1.486-2.974-2.394.021-.825.955-1.67 3.038-1.67 1.714-.042 2.974.35 3.929.742l.477.206.717-4.188zM54.7 13.57c.434-1.114 2.105-5.426 2.105-5.426-.022.041.434-1.135.694-1.857l.369 1.671s.999 4.642 1.215 5.612H54.7zm6.51-12.523h-4.08c-1.258 0-2.214.35-2.757 1.609L46.54 20.44h5.534l1.107-2.91h6.772c.152.682.63 2.91.63 2.91h4.883L61.21 1.047zM18.89 1.047L13.723 14.27l-.565-2.682c-.955-3.095-3.95-6.457-7.292-8.129l4.731 16.96h5.578l8.29-19.373H18.89z" fill="#00579F"/><path d="M8.928 1.047H.442l-.087.392C6.975 3.049 11.36 6.927 13.16 11.59l-1.844-8.913c-.304-1.239-1.238-1.59-2.388-1.63z" fill="#FAA61A"/></svg>