<svg width="31" height="33" fill="none" xmlns="http://www.w3.org/2000/svg"><path fill-rule="evenodd" clip-rule="evenodd" d="M22.5 9c-2-2.4-2.167-6.333-2-8-.667-.167-3.1.2-7.5 3S7.832 8.5 8 9c3.2 0 5 3 5.5 4.5-3.2 9.2 5 14.167 9.5 15.5l7-4c2.8-12-3.834-15.667-7.5-16zM20 1.5c-1.167.333-4.1 1.4-6.5 3-3 2-4 3-5 4S12 8 15 6s5.5-4 5-4.5zM8 6c-.667.833-1.9 2.7-1.5 3.5.3.603.967.66 1.667.721.46.04.936.08 1.332.279.8.4 1 1.167 1 1.5-.833 1-2 3.4 0 5-.5 0-1.7-.2-2.5-1 0 1 .7 3.6 3.5 6 3.5 3 2 11-4 11-4.8 0-6.333-3.333-6.5-5 1.5 1.667 5.264 4.149 8 .5 1.792-2.388-.16-4.599-2.237-6.95-1.402-1.586-2.86-3.237-3.263-5.05C2.303 11.117 3.5 9 8 6zM.99 23.175C.996 23.101 1 23.042 1 23c3.6.4 3.5 2.833 3 4C.793 26.542.944 23.985.991 23.175z" fill="#fff"/></svg>