<svg width="23" height="25" fill="none" xmlns="http://www.w3.org/2000/svg"><path d="M.22 21.328c0 1.72 1.482 3.043 3.233 3.043h15.892c1.751 0 3.098-1.323 3.098-3.043v-9.92H.22v9.92zM19.556 3.573h-2.685V1.436c0-.57-.403-1.14-1.074-1.14-.672 0-1.075.428-1.075 1.14v2.137H8.143V1.436c0-.57-.403-1.14-1.074-1.14-.672 0-1.074.428-1.074 1.14v2.137H3.309C1.564 3.573.221 4.998.221 6.85v2.706h22.155V6.85c.403-1.852-1.074-3.277-2.82-3.277z" fill="#fff"/><path d="M9.873 21.593a.24.24 0 01-.17-.064.243.243 0 01-.069-.169c0-.021.008-.053.023-.095l2.726-5.81H8.827a.273.273 0 01-.193-.074.237.237 0 01-.08-.18v-.75a.27.27 0 01.069-.191.288.288 0 01.204-.075h5c.082 0 .15.025.204.075.053.049.08.113.08.19v.667c0 .148-.039.3-.114.455l-2.704 5.767a.834.834 0 01-.148.19.337.337 0 01-.216.064H9.873z" fill="#FFA775"/></svg>