<svg width="23" height="25" fill="none" xmlns="http://www.w3.org/2000/svg"><path d="M.223 21.661c0 1.72 1.481 3.043 3.232 3.043h15.892c1.751 0 3.098-1.323 3.098-3.043v-9.92H.223v9.92zM19.558 3.906h-2.685V1.77c0-.57-.403-1.14-1.075-1.14-.67 0-1.074.428-1.074 1.14v2.137h-6.58V1.77c0-.57-.402-1.14-1.073-1.14-.672 0-1.074.428-1.074 1.14v2.137H3.31C1.565 3.906.223 5.331.223 7.183v2.706h22.155V7.183c.403-1.852-1.074-3.277-2.82-3.277z" fill="#fff"/><path d="M7.219 16.443c0-1.163-.946-2.109-2.11-2.109a2.113 2.113 0 00-2.07 1.701.586.586 0 001.15.226.938.938 0 011.858.182c0 .517-.42.938-.938.938a.586.586 0 100 1.172.939.939 0 010 1.875.94.94 0 01-.937-.938.586.586 0 00-1.172 0 2.118 2.118 0 002.11 2.11c1.163 0 2.109-.947 2.109-2.11 0-.598-.251-1.139-.653-1.523.402-.384.653-.925.653-1.524zM18.988 17.51a2.432 2.432 0 00-1.756-.754c-.196 0-.365.01-.518.028l.212-1.28h1.758a.586.586 0 100-1.171H16.43a.586.586 0 00-.578.49l-.447 2.696a.586.586 0 00.846.618 1.24 1.24 0 01.051-.024c.248-.112.447-.185.93-.185.347 0 .669.138.907.39.238.25.36.58.342.927a1.25 1.25 0 01-2.486.108.586.586 0 10-1.16.162 2.422 2.422 0 002.448 2.084 2.429 2.429 0 002.368-2.293 2.403 2.403 0 00-.662-1.795zM10.998 16.864a2.37 2.37 0 00-.478.049c.561-.984 1.24-1.51 1.259-1.525a.586.586 0 00-.701-.94c-.085.064-2.071 1.572-2.418 4.41a2.37 2.37 0 002.338 2.74 2.37 2.37 0 002.367-2.367 2.37 2.37 0 00-2.367-2.367zm0 3.563c-.659 0-1.195-.536-1.195-1.195 0-.66.536-1.196 1.195-1.196.66 0 1.195.536 1.195 1.195 0 .66-.536 1.196-1.195 1.196z" fill="#FFA775"/></svg>