<svg width="7" height="16" viewBox="0 0 7 16" fill="none" xmlns="http://www.w3.org/2000/svg">
<path d="M2.30709 0.824084C2.89299 0.23013 3.72242 0.0282488 4.50849 0.00487048C5.33816 -0.00292229 6.16782 0.000974095 6.99726 0.000974095C7.00091 0.936592 7.00091 1.86831 6.99726 2.80393C6.46249 2.80393 5.92383 2.80393 5.38906 2.80393C5.05057 2.78055 4.70136 3.05622 4.63951 3.41737C4.6322 4.04249 4.63585 4.66738 4.63585 5.2925C5.4217 5.2964 6.20777 5.2925 6.99361 5.2964C6.93541 6.20085 6.82996 7.10164 6.70625 7.99464C6.01125 8.00243 5.31625 7.99464 4.62125 7.99854C4.61394 10.6656 4.6249 13.3288 4.61759 15.9961C3.58411 16 2.5545 15.9922 1.52101 16C1.50276 13.3329 1.52101 10.6659 1.51006 7.99854C1.00792 7.99464 0.502136 8.00243 0 7.99464C0.0036519 7.09774 0 6.20109 0 5.30809C0.502136 5.3003 1.00792 5.30809 1.51006 5.30419C1.52467 4.43457 1.49545 3.56105 1.52467 2.69142C1.57945 1.99665 1.82321 1.30163 2.30709 0.824084Z" fill="white"/>
</svg>
