<svg width="10" height="16" viewBox="0 0 10 16" fill="none" xmlns="http://www.w3.org/2000/svg">
<path fill-rule="evenodd" clip-rule="evenodd" d="M10 5C10 7.76142 7.76142 10 5 10C2.23858 10 0 7.76142 0 5C0 2.23858 2.23858 0 5 0C7.76142 0 10 2.23858 10 5ZM5 9C7.20914 9 9 7.20914 9 5C9 2.79086 7.20914 1 5 1C2.79086 1 1 2.79086 1 5C1 7.20914 2.79086 9 5 9Z" fill="#FF9E67"/>
<path fill-rule="evenodd" clip-rule="evenodd" d="M5 9.5C5.27614 9.5 5.5 9.72386 5.5 10V15C5.5 15.2761 5.27614 15.5 5 15.5C4.72386 15.5 4.5 15.2761 4.5 15V10C4.5 9.72386 4.72386 9.5 5 9.5Z" fill="#FF9E67"/>
<path fill-rule="evenodd" clip-rule="evenodd" d="M7.5 13C7.5 13.2761 7.27614 13.5 7 13.5H3C2.72386 13.5 2.5 13.2761 2.5 13C2.5 12.7239 2.72386 12.5 3 12.5H7C7.27614 12.5 7.5 12.7239 7.5 13Z" fill="#FF9E67"/>
</svg>
