<svg width="12" height="17" viewBox="0 0 12 17" fill="none" xmlns="http://www.w3.org/2000/svg">
<path fill-rule="evenodd" clip-rule="evenodd" d="M12 6C12 9.31371 9.31371 12 6 12C2.68629 12 0 9.31371 0 6C0 2.68629 2.68629 0 6 0C9.31371 0 12 2.68629 12 6ZM6 10C8.20914 10 10 8.20914 10 6C10 3.79086 8.20914 2 6 2C3.79086 2 2 3.79086 2 6C2 8.20914 3.79086 10 6 10Z" fill="#FF9E67"/>
<path fill-rule="evenodd" clip-rule="evenodd" d="M6 10C6.55228 10 7 10.4477 7 11V16C7 16.5523 6.55228 17 6 17C5.44772 17 5 16.5523 5 16V11C5 10.4477 5.44772 10 6 10Z" fill="#FF9E67"/>
<path fill-rule="evenodd" clip-rule="evenodd" d="M9 14C9 14.5523 8.55228 15 8 15H4C3.44772 15 3 14.5523 3 14C3 13.4477 3.44772 13 4 13H8C8.55228 13 9 13.4477 9 14Z" fill="#FF9E67"/>
</svg>
