<svg width="4" height="16" viewBox="0 0 4 16" fill="none" xmlns="http://www.w3.org/2000/svg">
<path d="M3.55923 5.50439H2.32507H0.440771C0.220386 5.50439 0 5.62111 0 5.86353V6.86911C0 7.04868 0.220386 7.22825 0.440771 7.22825H1.89532V13.145C1.89532 13.145 1.89532 13.145 1.89532 13.2079C1.89532 13.8004 1.31129 14.2763 0.584022 14.2763H0.440771C0.220386 14.2763 0 14.4558 0 14.6354V15.641C0 15.8206 0.220386 16.0001 0.440771 16.0001H0.517906C2.4022 16.0001 4 14.7611 4 13.2168C4 13.2168 4 13.2168 4 13.154V5.87251C4 5.62111 3.77961 5.50439 3.55923 5.50439Z" fill="white"/>
<path d="M0.141911 0C-0.0784836 3.90538 3.77841 4.44405 3.77841 4.44405C3.55802 0.179558 0.141911 0 0.141911 0Z" fill="white"/>
</svg>
