<svg width="16" height="16" viewBox="0 0 16 16" fill="none" xmlns="http://www.w3.org/2000/svg">
<path d="M8.01239 3.85449C5.7097 3.85449 3.83594 5.7009 3.83594 7.97065C3.83594 10.2401 5.70944 12.0865 8.01239 12.0865C10.3151 12.0865 12.1888 10.2401 12.1888 7.97065C12.1888 5.7009 10.3151 3.85449 8.01239 3.85449ZM8.01239 10.5712C6.54819 10.5712 5.35719 9.4044 5.35719 7.97065C5.35719 6.53664 6.54819 5.37009 8.01239 5.37009C9.47633 5.37009 10.6676 6.53664 10.6676 7.97065C10.6676 9.40466 9.4766 10.5712 8.01239 10.5712Z" fill="white"/>
<path d="M11.3946 0H4.60537C2.06611 0 0 2.05784 0 4.58752V11.4125C0 13.9419 2.06585 16 4.60537 16H11.3946C13.9342 16 16 13.9419 16 11.4125V4.58752C16 2.0581 13.9342 0 11.3946 0ZM14.4759 11.4125C14.4759 13.1048 13.0936 14.4818 11.3946 14.4818H4.60537C2.90643 14.4818 1.52413 13.1048 1.52413 11.4125V4.58752C1.52413 2.89516 2.90643 1.51822 4.60537 1.51822H11.3946C13.0936 1.51822 14.4759 2.89516 14.4759 4.58752V11.4125Z" fill="white"/>
<path d="M12.264 4.66549C12.8067 4.66549 13.2467 4.22718 13.2467 3.6865C13.2467 3.14583 12.8067 2.70752 12.264 2.70752C11.7212 2.70752 11.2812 3.14583 11.2812 3.6865C11.2812 4.22718 11.7212 4.66549 12.264 4.66549Z" fill="white"/>
</svg>
