<svg width="15" height="16" viewBox="0 0 15 16" fill="none" xmlns="http://www.w3.org/2000/svg">
<g opacity="0.45">
<path fill-rule="evenodd" clip-rule="evenodd" d="M9.52941 10.3531C9.52941 12.9846 7.39618 15.1178 4.76471 15.1178C2.13323 15.1178 0 12.9846 0 10.3531C0 7.72161 2.13323 5.58838 4.76471 5.58838C7.39618 5.58838 9.52941 7.72161 9.52941 10.3531ZM4.76471 14.1178C6.8439 14.1178 8.52941 12.4323 8.52941 10.3531C8.52941 8.27389 6.8439 6.58838 4.76471 6.58838C2.68552 6.58838 1 8.27389 1 10.3531C1 12.4323 2.68552 14.1178 4.76471 14.1178Z" fill="#2F056E"/>
<path fill-rule="evenodd" clip-rule="evenodd" d="M14.0592 1.05831C14.2545 1.25357 14.2545 1.57016 14.0592 1.76542L8.41218 7.41248L7.70508 6.70537L13.3521 1.05831C13.5474 0.86305 13.864 0.86305 14.0592 1.05831Z" fill="#2F056E"/>
<path fill-rule="evenodd" clip-rule="evenodd" d="M8.9707 1.41187C8.9707 1.13572 9.19456 0.911865 9.4707 0.911865H13.706C13.9821 0.911865 14.206 1.13572 14.206 1.41187C14.206 1.68801 13.9821 1.91187 13.706 1.91187H9.4707C9.19456 1.91187 8.9707 1.68801 8.9707 1.41187Z" fill="#2F056E"/>
<path fill-rule="evenodd" clip-rule="evenodd" d="M13.7051 0.911865C13.9812 0.911865 14.2051 1.13572 14.2051 1.41187V5.64716C14.2051 5.9233 13.9812 6.14716 13.7051 6.14716C13.4289 6.14716 13.2051 5.9233 13.2051 5.64716V1.41187C13.2051 1.13572 13.4289 0.911865 13.7051 0.911865Z" fill="#2F056E"/>
</g>
</svg>
