<svg width="14" height="16" viewBox="0 0 14 16" fill="none" xmlns="http://www.w3.org/2000/svg">
<path d="M7.38996 0C9.17536 0 10.64 0.51968 11.784 1.55904C12.9279 2.5984 13.5 3.82737 13.5 5.24619C13.5 7.07748 13.0147 8.58689 12.0439 9.77466C11.0731 10.9624 9.82516 11.5563 8.3 11.5563C7.79726 11.5563 7.3206 11.4409 6.87001 11.2099C6.41943 10.9788 6.1073 10.7068 5.9339 10.3934C5.56988 11.8122 5.34459 12.6535 5.25802 12.9173C4.98057 13.874 4.40013 14.8804 3.51591 15.9364C3.41186 16.0354 3.3425 16.0188 3.30782 15.887C3.09974 14.4848 3.1086 13.3216 3.3339 12.3979L4.5558 7.37455C4.34772 6.99509 4.24368 6.5166 4.24368 5.93935C4.24368 5.26307 4.42568 4.69797 4.7897 4.24431C5.15372 3.79064 5.5957 3.56381 6.11565 3.56381C6.53155 3.56381 6.85228 3.69162 7.07758 3.94749C7.30287 4.20336 7.41551 4.52896 7.41551 4.92505C7.41551 5.17248 7.3678 5.47352 7.27262 5.82816C7.17718 6.18281 7.0515 6.59528 6.89557 7.06557C6.73963 7.53562 6.62699 7.91111 6.55763 8.19154C6.43638 8.67003 6.53155 9.08647 6.84368 9.44111C7.1558 9.79575 7.57171 9.9732 8.09166 9.9732C8.97562 9.9732 9.70365 9.49472 10.2758 8.538C10.8478 7.58128 11.1336 6.42627 11.1336 5.07371C11.1336 4.03435 10.7827 3.18881 10.0807 2.53735C9.37875 1.88589 8.39492 1.55979 7.12973 1.55979C5.70834 1.55979 4.55997 1.99285 3.68462 2.85899C2.80926 3.72512 2.37197 4.75952 2.37197 5.96367C2.37197 6.67296 2.58866 7.27528 3.02203 7.77014C3.16076 7.93518 3.20404 8.09997 3.15215 8.26501C3.13494 8.29801 3.11304 8.38463 3.08722 8.52484C3.06115 8.66506 3.0395 8.76409 3.02229 8.82191C3.00508 8.87974 2.9704 8.96635 2.91825 9.08175C2.86636 9.19715 2.80561 9.25076 2.73625 9.24257C2.66688 9.23438 2.58031 9.23016 2.47627 9.23016C1.15867 8.71867 0.5 7.55572 0.5 5.74105C0.5 4.28923 1.11538 2.96943 2.34589 1.78166C3.5764 0.593885 5.25802 0 7.38996 0Z" fill="white"/>
</svg>
