<svg width="309" height="308" viewBox="0 0 309 308" fill="none" xmlns="http://www.w3.org/2000/svg">
<path d="M299.73 293.852C299.51 293.685 299.196 293.726 299.029 293.946C298.861 294.165 298.903 294.479 299.122 294.647L299.73 293.852ZM307.926 300.75L308.23 301.147C308.353 301.052 308.426 300.905 308.426 300.75C308.426 300.594 308.353 300.447 308.23 300.352L307.926 300.75ZM299.122 306.852C298.903 307.02 298.861 307.334 299.029 307.553C299.196 307.773 299.51 307.814 299.73 307.647L299.122 306.852ZM299.122 294.647L307.622 301.147L308.23 300.352L299.73 293.852L299.122 294.647ZM307.622 300.352L299.122 306.852L299.73 307.647L308.23 301.147L307.622 300.352Z" fill="#2F056E"/>
<path d="M9.65614 1.24951C-48.5749 191.25 204.41 196.038 190.156 122.25C181.656 78.2495 86.3863 154.75 161.925 253.25C196.126 297.846 265.925 300.805 297.425 300.805" stroke="url(#paint0_linear)" stroke-linecap="round" stroke-dasharray="6 6"/>
<defs>
<linearGradient id="paint0_linear" x1="247.425" y1="301.25" x2="1.42507" y2="-8.75046" gradientUnits="userSpaceOnUse">
<stop stop-color="#2F056E"/>
<stop offset="1" stop-color="#2F056E" stop-opacity="0"/>
</linearGradient>
</defs>
</svg>
