<svg width="1454" height="950" viewBox="0 0 1454 950" fill="none" xmlns="http://www.w3.org/2000/svg">
<g opacity="0.4">
<circle r="163.44" transform="matrix(1 0 0 -1 164.44 312.652)" stroke="#BF92F8" stroke-width="2"/>
<circle r="4.34764" transform="matrix(1 0 0 -1 250.002 173.614)" fill="#F4F4F4" stroke="#BF92F8" stroke-width="2"/>
<circle r="16.5" transform="matrix(1 0 0 -1 181.5 17.5)" stroke="#BF92F8" stroke-width="2"/>
<circle r="1.67382" transform="matrix(1 0 0 -1 259.361 178.961)" fill="#F4F4F4" stroke="#BF92F8" stroke-width="2"/>
</g>
<path opacity="0.4" d="M1424.5 573L1425.26 599.651L1439.25 576.952L1426.59 600.414L1450.05 587.75L1427.35 601.736L1454 602.5L1427.35 603.264L1450.05 617.25L1426.59 604.586L1439.25 628.048L1425.26 605.349L1424.5 632L1423.74 605.349L1409.75 628.048L1422.41 604.586L1398.95 617.25L1421.65 603.264L1395 602.5L1421.65 601.736L1398.95 587.75L1422.41 600.414L1409.75 576.952L1423.74 599.651L1424.5 573Z" fill="#BF92F8"/>
<path opacity="0.4" d="M1224.5 24L1224.95 39.8096L1233.25 26.3446L1225.74 40.2626L1239.66 32.75L1226.19 41.0471L1242 41.5L1226.19 41.9529L1239.66 50.25L1225.74 42.7374L1233.25 56.6554L1224.95 43.1904L1224.5 59L1224.05 43.1904L1215.75 56.6554L1223.26 42.7374L1209.34 50.25L1222.81 41.9529L1207 41.5L1222.81 41.0471L1209.34 32.75L1223.26 40.2626L1215.75 26.3446L1224.05 39.8096L1224.5 24Z" fill="#BF92F8"/>
</svg>
