<svg width="1009" height="588" viewBox="0 0 1009 588" fill="none" xmlns="http://www.w3.org/2000/svg">
<circle opacity="0.2" r="8.27778" transform="matrix(1 0 0 -1 935 33)" stroke="#F6F4EF" stroke-width="1.44444"/>
<circle opacity="0.2" r="2.16667" transform="matrix(1 0 0 -1 565.889 499.888)" stroke="#F6F4EF" stroke-width="1.44444"/>
<circle opacity="0.2" r="5.05556" transform="matrix(1 0 0 -1 362.778 438.778)" stroke="#F6F4EF" stroke-width="1.44444"/>
<path opacity="0.3" d="M992.889 556L993.3 570.354L1000.83 558.129L994.012 570.765L1006.65 563.944L994.424 571.478L1008.78 571.889L994.424 572.3L1006.65 579.833L994.012 573.012L1000.83 585.649L993.3 573.424L992.889 587.778L992.478 573.424L984.944 585.649L991.765 573.012L979.129 579.833L991.354 572.3L977 571.889L991.354 571.478L979.129 563.944L991.765 570.765L984.944 558.129L992.478 570.354L992.889 556Z" fill="#F6F4EF"/>
<path opacity="0.2" d="M26.7222 0L27.4138 24.1411L40.0833 3.5801L28.6118 24.8327L49.8643 13.3611L29.3034 26.0306L53.4444 26.7222L29.3034 27.4138L49.8643 40.0833L28.6118 28.6118L40.0833 49.8643L27.4138 29.3034L26.7222 53.4444L26.0306 29.3034L13.3611 49.8643L24.8327 28.6118L3.5801 40.0833L24.1411 27.4138L0 26.7222L24.1411 26.0306L3.5801 13.3611L24.8327 24.8327L13.3611 3.5801L26.0306 24.1411L26.7222 0Z" fill="#F6F4EF"/>
</svg>
