<svg width="1517" height="706" viewBox="0 0 1517 706" fill="none" xmlns="http://www.w3.org/2000/svg">
<path opacity="0.4" d="M37.5 173L38.4706 206.878L56.25 178.024L40.1516 207.848L69.976 191.75L41.1222 209.529L75 210.5L41.1222 211.471L69.976 229.25L40.1516 213.152L56.25 242.976L38.4706 214.122L37.5 248L36.5294 214.122L18.75 242.976L34.8484 213.152L5.02405 229.25L33.8778 211.471L0 210.5L33.8778 209.529L5.02405 191.75L34.8484 207.848L18.75 178.024L36.5294 206.878L37.5 173Z" fill="#BF92F8"/>
<path opacity="0.4" d="M1487.5 647L1488.26 673.651L1502.25 650.952L1489.59 674.414L1513.05 661.75L1490.35 675.736L1517 676.5L1490.35 677.264L1513.05 691.25L1489.59 678.586L1502.25 702.048L1488.26 679.349L1487.5 706L1486.74 679.349L1472.75 702.048L1485.41 678.586L1461.95 691.25L1484.65 677.264L1458 676.5L1484.65 675.736L1461.95 661.75L1485.41 674.414L1472.75 650.952L1486.74 673.651L1487.5 647Z" fill="#BF92F8"/>
<path opacity="0.4" d="M373.5 662L373.953 677.81L382.25 664.345L374.737 678.263L388.655 670.75L375.19 679.047L391 679.5L375.19 679.953L388.655 688.25L374.737 680.737L382.25 694.655L373.953 681.19L373.5 697L373.047 681.19L364.75 694.655L372.263 680.737L358.345 688.25L371.81 679.953L356 679.5L371.81 679.047L358.345 670.75L372.263 678.263L364.75 664.345L373.047 677.81L373.5 662Z" fill="#BF92F8"/>
<path opacity="0.4" d="M1457.5 0L1457.82 11.2926L1463.75 1.67468L1458.38 11.6161L1468.33 6.25L1458.71 12.1765L1470 12.5L1458.71 12.8235L1468.33 18.75L1458.38 13.3839L1463.75 23.3253L1457.82 13.7074L1457.5 25L1457.18 13.7074L1451.25 23.3253L1456.62 13.3839L1446.67 18.75L1456.29 12.8235L1445 12.5L1456.29 12.1765L1446.67 6.25L1456.62 11.6161L1451.25 1.67468L1457.18 11.2926L1457.5 0Z" fill="#BF92F8"/>
<path opacity="0.4" d="M782.5 309L782.824 320.293L788.75 310.675L783.384 320.616L793.325 315.25L783.707 321.176L795 321.5L783.707 321.824L793.325 327.75L783.384 322.384L788.75 332.325L782.824 322.707L782.5 334L782.176 322.707L776.25 332.325L781.616 322.384L771.675 327.75L781.293 321.824L770 321.5L781.293 321.176L771.675 315.25L781.616 320.616L776.25 310.675L782.176 320.293L782.5 309Z" fill="#BF92F8"/>
</svg>
