<svg width="1254" height="669" viewBox="0 0 1254 669" fill="none" xmlns="http://www.w3.org/2000/svg">
<path opacity="0.4" d="M38.5 610L39.2635 636.651L53.25 613.952L40.586 637.414L64.0477 624.75L41.3495 638.736L68 639.5L41.3495 640.264L64.0477 654.25L40.586 641.586L53.25 665.048L39.2635 642.349L38.5 669L37.7365 642.349L23.75 665.048L36.414 641.586L12.9523 654.25L35.6505 640.264L9 639.5L35.6505 638.736L12.9523 624.75L36.414 637.414L23.75 613.952L37.7365 636.651L38.5 610Z" fill="#BF92F8"/>
<path opacity="0.4" d="M368.5 560L369.005 577.616L378.25 562.613L369.879 578.121L385.387 569.75L370.384 578.995L388 579.5L370.384 580.005L385.387 589.25L369.879 580.879L378.25 596.387L369.005 581.384L368.5 599L367.995 581.384L358.75 596.387L367.121 580.879L351.613 589.25L366.616 580.005L349 579.5L366.616 578.995L351.613 569.75L367.121 578.121L358.75 562.613L367.995 577.616L368.5 560Z" fill="#BF92F8"/>
<path opacity="0.2" d="M19.5 0L20.0047 17.6164L29.25 2.6125L20.8789 18.1211L36.3875 9.75L21.3836 18.9953L39 19.5L21.3836 20.0047L36.3875 29.25L20.8789 20.8789L29.25 36.3875L20.0047 21.3836L19.5 39L18.9953 21.3836L9.75 36.3875L18.1211 20.8789L2.6125 29.25L17.6164 20.0047L0 19.5L17.6164 18.9953L2.6125 9.75L18.1211 18.1211L9.75 2.6125L18.9953 17.6164L19.5 0Z" fill="#BF92F8"/>
<circle opacity="0.25" r="111.5" transform="matrix(1 0 0 -1 1141.5 277.5)" stroke="#BF92F8" stroke-width="2"/>
</svg>
