<svg width="1315" height="692" viewBox="0 0 1315 692" fill="none" xmlns="http://www.w3.org/2000/svg">
<circle opacity="0.45" r="12.5" transform="matrix(1 0 0 -1 13.5 618.5)" stroke="#BF92F8" stroke-width="2"/>
<g opacity="0.25">
<path d="M1101.7 656.803C1102.99 655.522 1103.79 653.747 1103.79 651.786C1103.79 647.88 1100.62 644.714 1096.71 644.714C1094.88 644.714 1093.21 645.412 1091.95 646.557M1101.7 656.803C1100.42 658.073 1098.66 658.857 1096.71 658.857C1092.81 658.857 1089.64 655.691 1089.64 651.786C1089.64 649.714 1090.53 647.851 1091.95 646.557M1101.7 656.803C1124.24 678.008 1154.61 691 1188 691C1257.59 691 1314 634.588 1314 565C1314 495.412 1257.59 439 1188 439C1118.41 439 1062 495.412 1062 565C1062 591.614 1070.25 616.301 1084.34 636.641M1091.95 646.557C1091.2 645.667 1090.45 644.765 1089.72 643.854M1089.72 643.854C1090.84 643.035 1091.57 641.71 1091.57 640.214C1091.57 637.729 1089.56 635.714 1087.07 635.714C1086.04 635.714 1085.09 636.06 1084.34 636.641M1089.72 643.854C1088.98 644.395 1088.06 644.714 1087.07 644.714C1084.59 644.714 1082.57 642.7 1082.57 640.214C1082.57 638.758 1083.26 637.464 1084.34 636.641" stroke="#BF92F8" stroke-width="2"/>
<path d="M1237.92 639.898C1239.07 641.638 1241.04 642.786 1243.29 642.786C1246.84 642.786 1249.71 639.908 1249.71 636.357C1249.71 634.695 1249.08 633.181 1248.05 632.04M1237.92 639.898C1237.25 638.883 1236.86 637.666 1236.86 636.357C1236.86 632.807 1239.74 629.929 1243.29 629.929C1245.17 629.929 1246.87 630.743 1248.05 632.04M1237.92 639.898C1223.63 649.438 1206.47 655 1188 655C1138.29 655 1098 614.706 1098 565C1098 515.294 1138.29 475 1188 475C1237.71 475 1278 515.294 1278 565C1278 591.631 1266.43 615.561 1248.05 632.04" stroke="#BF92F8" stroke-width="2"/>
</g>
<path opacity="0.4" d="M65.5 75L66.2635 101.651L80.25 78.9523L67.586 102.414L91.0477 89.75L68.3495 103.736L95 104.5L68.3495 105.264L91.0477 119.25L67.586 106.586L80.25 130.048L66.2635 107.349L65.5 134L64.7365 107.349L50.75 130.048L63.414 106.586L39.9523 119.25L62.6505 105.264L36 104.5L62.6505 103.736L39.9523 89.75L63.414 102.414L50.75 78.9523L64.7365 101.651L65.5 75Z" fill="#BF92F8"/>
<path opacity="0.4" d="M1275.5 0L1276 17.6164L1285.25 2.6125L1276.88 18.1211L1292.39 9.75L1277.38 18.9953L1295 19.5L1277.38 20.0047L1292.39 29.25L1276.88 20.8789L1285.25 36.3875L1276 21.3836L1275.5 39L1275 21.3836L1265.75 36.3875L1274.12 20.8789L1258.61 29.25L1273.62 20.0047L1256 19.5L1273.62 18.9953L1258.61 9.75L1274.12 18.1211L1265.75 2.6125L1275 17.6164L1275.5 0Z" fill="#BF92F8"/>
</svg>
