<svg width="521" height="759" viewBox="0 0 521 759" fill="none" xmlns="http://www.w3.org/2000/svg">
<path opacity="0.5" d="M319.535 4.62081C404.632 -11.1593 538.422 22.9422 473.018 140.494C391.263 287.434 66.1725 128.88 201.531 216.731C429.827 364.9 540.119 288.254 516.981 280.056C493.842 271.859 492.3 353.834 501.555 404.863C505.057 424.169 256.805 412.24 149.856 417.774C72.7284 425.152 41.8776 525.366 163.738 538.277C362.315 559.315 546.387 593.428 497.699 683.987C467.619 739.935 96.6376 699.357 88.9249 752.231C85.2197 777.632 140.6 711.654 88.9249 699.357C40.2779 687.782 6.91308 738.5 1 737.476" stroke="#BF92F8" stroke-width="1.58862" stroke-linecap="round" stroke-dasharray="9.53 9.53"/>
</svg>
