<svg width="309" height="1279" viewBox="0 0 309 1279" fill="none" xmlns="http://www.w3.org/2000/svg">
<circle opacity="0.45" r="12.5" transform="matrix(1 0 0 -1 156.5 13.5)" stroke="#BF92F8" stroke-width="2"/>
<circle opacity="0.45" r="4.5" transform="matrix(1 0 0 -1 303.5 1273.5)" stroke="#BF92F8" stroke-width="2"/>
<g opacity="0.25">
<path d="M40.697 565.803C41.987 564.522 42.7857 562.747 42.7857 560.786C42.7857 556.88 39.6197 553.714 35.7143 553.714C33.8804 553.714 32.2095 554.412 30.953 555.557M40.697 565.803C39.4187 567.073 37.6581 567.857 35.7143 567.857C31.8089 567.857 28.6429 564.691 28.6429 560.786C28.6429 558.714 29.5336 556.851 30.953 555.557M40.697 565.803C63.2446 587.008 93.6051 600 127 600C196.588 600 253 543.588 253 474C253 404.412 196.588 348 127 348C57.4121 348 1.00002 404.412 1.00002 474C1.00002 500.614 9.25131 525.301 23.3352 545.641M30.953 555.557C30.1959 554.667 29.4511 553.765 28.7186 552.854M28.7186 552.854C29.8416 552.035 30.5714 550.71 30.5714 549.214C30.5714 546.729 28.5567 544.714 26.0714 544.714C25.0421 544.714 24.0934 545.06 23.3352 545.641M28.7186 552.854C27.9758 553.395 27.0609 553.714 26.0714 553.714C23.5862 553.714 21.5714 551.7 21.5714 549.214C21.5714 547.758 22.2629 546.464 23.3352 545.641" stroke="#BF92F8" stroke-width="2"/>
<path d="M176.92 548.898C178.07 550.638 180.044 551.786 182.286 551.786C185.836 551.786 188.714 548.908 188.714 545.357C188.714 543.695 188.084 542.181 187.049 541.04M176.92 548.898C176.248 547.883 175.857 546.666 175.857 545.357C175.857 541.807 178.735 538.929 182.286 538.929C184.174 538.929 185.873 539.743 187.049 541.04M176.92 548.898C162.635 558.438 145.467 564 127 564C77.2944 564 37 523.706 37 474C37 424.294 77.2944 384 127 384C176.706 384 217 424.294 217 474C217 500.631 205.433 524.561 187.049 541.04" stroke="#BF92F8" stroke-width="2"/>
</g>
</svg>
