<svg width="54" height="27" viewBox="0 0 54 27" fill="none" xmlns="http://www.w3.org/2000/svg">
<path d="M27.0709 12.0708C27.0709 12.5039 27.4319 12.6122 27.6123 12.6122C28.6952 12.6122 27.6123 13.1536 27.6123 13.695C27.6123 14.1281 28.5147 14.2364 28.6952 14.2364C28.5147 14.2364 27.7206 14.3447 28.1538 14.7778C28.6952 15.3192 27.6123 16.4021 28.6952 16.9435C29.778 17.4849 31.4022 16.9435 31.9436 16.9435C32.485 16.9435 32.485 16.9435 33.0265 20.1919C33.4596 22.7907 31.4022 25.2451 30.3194 26.1475C35.517 23.5487 40.4258 24.7037 42.2305 25.6061C42.2305 24.8842 41.9056 23.1156 40.6062 21.8162C39.3068 20.5168 39.3429 18.0263 39.5234 16.9435C38.8015 16.0411 37.5744 14.0198 38.4406 13.1536C39.5235 12.0708 38.982 10.9879 38.4406 10.4465C38.0075 10.0134 37.1773 10.627 36.8164 10.9879C36.9968 10.4465 37.2495 8.93056 36.8164 7.19804C36.2749 5.03239 31.9436 3.40816 30.3194 5.03239C28.6952 6.65663 29.778 7.73945 29.2366 9.36369C28.6952 10.9879 27.0709 11.5293 27.0709 12.0708Z" fill="white"/>
<path d="M33.6732 0.701215C38.0045 -1.46443 43.4186 1.78404 45.0429 5.03251C46.6671 8.28099 53.1641 6.11521 53.1641 10.9879C53.1641 15.8606 50.457 14.7778 47.7499 16.402C45.0429 18.0263 46.1257 20.1919 48.2914 21.8162C46.4462 21.5323 43.1606 20.566 40.4012 18.4479C40.3497 17.7594 40.3965 17.1253 40.464 16.7202L40.5007 16.5L40.3613 16.3257C40.0198 15.8988 39.2655 15.166 39.0007 14.5C38.8681 14.1663 38.8323 14.2409 38.829 14C38.8257 13.7666 39.4063 13.5945 39.5007 13.5C40.5577 12.8432 40.0927 11.6434 40.0007 11C39.8341 10.3333 39.2007 9.1 38.0007 9.5C38.0007 8 37.7682 7.56999 37.5007 6.5C37.0007 5.5 36.7159 5.42726 36.1598 4.95456C35.5997 4.47844 34.9011 4.09453 34.1739 3.84C33.4475 3.58577 32.669 3.45241 31.9456 3.5C31.2335 3.54685 30.5375 3.77295 30.0221 4.27559C30.3805 3.21936 31.377 1.84933 33.6732 0.701215Z" fill="white"/>
<path d="M26.0931 12.0708C26.0931 12.5039 25.7322 12.6122 25.5517 12.6122C24.4689 12.6122 25.5517 13.1536 25.5517 13.695C25.5517 14.1281 24.6494 14.2364 24.4689 14.2364C24.6494 14.2364 25.4434 14.3447 25.0103 14.7778C24.4689 15.3192 25.5517 16.4021 24.4689 16.9435C23.3861 17.4849 21.7618 16.9435 21.2204 16.9435C20.679 16.9435 20.679 16.9435 20.1376 20.1919C19.7045 22.7907 21.7618 25.2451 22.8447 26.1475C17.6471 23.5487 12.7383 24.7037 10.9336 25.6061C10.9336 24.8842 11.2584 23.1156 12.5578 21.8162C13.8572 20.5168 13.8211 18.0263 13.6407 16.9435C14.3625 16.0411 15.5897 14.0198 14.7234 13.1536C13.6406 12.0708 14.182 10.9879 14.7234 10.4465C15.1566 10.0134 15.9868 10.627 16.3477 10.9879C16.1672 10.4465 15.9146 8.93056 16.3477 7.19804C16.8891 5.03239 21.2204 3.40816 22.8447 5.03239C24.4689 6.65663 23.3861 7.73945 23.9275 9.36369C24.4689 10.9879 26.0931 11.5293 26.0931 12.0708Z" fill="white"/>
<path d="M19.4908 0.701215C15.1595 -1.46443 9.74542 1.78404 8.12118 5.03251C6.49695 8.28099 0 6.11521 0 10.9879C0 15.8606 2.70706 14.7778 5.41412 16.402C8.12118 18.0263 7.03836 20.1919 4.87271 21.8162C6.71788 21.5323 10.0035 20.566 12.7629 18.4479C12.8144 17.7594 12.7676 17.1253 12.7 16.7202L12.6633 16.5L12.8028 16.3257C13.1443 15.8988 13.8986 15.166 14.1633 14.5C14.296 14.1663 14.3318 14.2409 14.3351 14C14.3383 13.7666 13.7578 13.5945 13.6633 13.5C12.6064 12.8432 13.0714 11.6434 13.1633 11C13.33 10.3333 13.9633 9.1 15.1633 9.5C15.1633 8 15.3958 7.56999 15.6633 6.5C16.1633 5.5 16.4481 5.42726 17.0043 4.95456C17.5644 4.47844 18.2629 4.09453 18.9902 3.84C19.7165 3.58577 20.4951 3.45241 21.2185 3.5C21.9305 3.54685 22.6266 3.77295 23.142 4.27559C22.7835 3.21936 21.7871 1.84933 19.4908 0.701215Z" fill="white"/>
</svg>
