<svg width="24" height="35" viewBox="0 0 24 35" fill="none" xmlns="http://www.w3.org/2000/svg">
<path d="M17.0005 10.0002C18.2005 12.0002 20.1671 13.5002 21.0005 14.0002C22.0005 14.0001 23.8005 12.8 23.0005 8C22.2005 3.2 19.3338 2.66679 18.0005 3.00019C16.0005 -0.499812 11.0005 -0.999812 6.00049 3.00019C1.00049 7.00019 2.50043 11.0002 1.00043 14.0002C-0.499566 17.0002 0.000433922 19.5002 4.00043 22.0002C8.00043 24.5002 9.00043 28.5002 6.00043 29.0002C3.60043 29.4002 3.00046 27.5002 3.00048 26.5002C0.000478029 29.0002 1.50048 36.0002 8.00048 34.0002C13.2005 32.4002 11.5005 27.3335 10.0005 25.0002C12.8005 23.8002 11.8338 21.5002 11.0005 20.5002C11.0005 22.1002 10.0005 22.1669 9.50046 22.0002C6.70046 21.2002 7.66712 18.3335 8.50046 17.0002C15.7005 14.2002 17.1671 11.1669 17.0005 10.0002Z" fill="white"/>
<path d="M21.0005 15C19.4004 14.6 17.6671 13.1667 17.0005 12.5C15.8005 15.3 11.5005 17 9.50046 17.5C11.9004 21.1 14.1671 22.0001 15.0005 22.0002C18.6005 22.0002 20.5005 17.3334 21.0005 15Z" fill="white"/>
<path d="M18.3237 6.99989C17.9904 7.83323 17.5237 9.49989 18.3237 9.49989C19.1237 9.49989 18.657 7.83323 18.3237 6.99989Z" fill="#FF9E67"/>
<path d="M18.5005 6.92682C18.8541 7.75178 19.7026 9.26027 20.2683 8.69459C20.834 8.1289 19.3255 7.28037 18.5005 6.92682Z" fill="#FF9E67"/>
<path d="M18.0738 6.92689C17.2488 7.28044 15.7403 8.12897 16.306 8.69466C16.8717 9.26034 17.7202 7.75185 18.0738 6.92689Z" fill="#FF9E67"/>
<path d="M18.0005 6.73752C17.1672 6.40419 15.5005 5.93752 15.5005 6.73752C15.5005 7.53752 17.1672 7.07085 18.0005 6.73752Z" fill="#FF9E67"/>
<path d="M18.3236 6.5C17.9902 5.66667 17.5236 4 18.3236 4C19.1236 4 18.6569 5.66667 18.3236 6.5Z" fill="#FF9E67"/>
<path d="M18.0737 6.5C17.2488 6.14645 15.7403 5.29792 16.306 4.73223C16.8716 4.16655 17.7202 5.67504 18.0737 6.5Z" fill="#FF9E67"/>
<path d="M18.5737 6.5C19.3987 6.14645 20.9072 5.29792 20.3415 4.73223C19.7758 4.16655 18.9273 5.67504 18.5737 6.5Z" fill="#FF9E67"/>
<path d="M18.6284 6.73744C19.4618 6.40411 21.1284 5.93744 21.1284 6.73744C21.1284 7.53744 19.4618 7.07078 18.6284 6.73744Z" fill="#FF9E67"/>
<path d="M9.0135 9.5285C8.42785 10.9926 7.60794 13.9209 9.0135 13.9209C10.419 13.9209 9.59914 10.9926 9.0135 9.5285Z" fill="#FF9E67"/>
<path d="M9.3242 9.40012C9.94537 10.8495 11.4362 13.4999 12.4301 12.506C13.4239 11.5121 10.7736 10.0213 9.3242 9.40012Z" fill="#FF9E67"/>
<path d="M8.57436 9.40024C7.12496 10.0214 4.47463 11.5122 5.4685 12.5061C6.46238 13.5 7.95319 10.8496 8.57436 9.40024Z" fill="#FF9E67"/>
<path d="M8.44573 9.06753C6.98161 8.48189 4.05338 7.66198 4.05338 9.06753C4.05338 10.4731 6.98161 9.65318 8.44573 9.06753Z" fill="#FF9E67"/>
<path d="M9.01328 8.65022C8.42764 7.18611 7.60773 4.25787 9.01328 4.25787C10.4188 4.25787 9.59893 7.18611 9.01328 8.65022Z" fill="#FF9E67"/>
<path d="M8.57432 8.65022C7.12492 8.02905 4.47459 6.53824 5.46847 5.54436C6.46234 4.55049 7.95315 7.20082 8.57432 8.65022Z" fill="#FF9E67"/>
<path d="M9.4528 8.65022C10.9022 8.02905 13.5525 6.53824 12.5587 5.54436C11.5648 4.55049 10.074 7.20082 9.4528 8.65022Z" fill="#FF9E67"/>
<path d="M9.54888 9.06739C11.013 8.48175 13.9412 7.66184 13.9412 9.0674C13.9412 10.4729 11.013 9.65304 9.54888 9.06739Z" fill="#FF9E67"/>
</svg>
