<svg width="24" height="26" viewBox="0 0 24 26" fill="none" xmlns="http://www.w3.org/2000/svg">
<path d="M15.4848 18H10.1818L7 21.8621H10.4848L7.15152 26L17 20.2069H12L15.4848 18Z" fill="white"/>
<path d="M13.0279 1.32275C9.96165 1.32275 7.48011 3.78842 7.40707 6.84248C7.19951 6.81645 6.9882 6.80305 6.77396 6.80305C3.96184 6.80305 1.69531 9.09826 1.69531 11.9133C1.69531 14.7283 3.96184 17.0235 6.77396 17.0235H17.9223C20.7344 17.0235 23.0009 14.7283 23.0009 11.9133C23.0009 9.34535 21.1148 7.20998 18.649 6.8549C18.5824 3.79511 16.0983 1.32275 13.0279 1.32275Z" fill="white" stroke="#BF92F8" stroke-width="2"/>
<path d="M10.5132 10.2692C10.1266 9.37745 9.43508 8.65068 8.57145 8.2227M8.57145 8.2227C8.02918 7.95398 7.41906 7.80305 6.77396 7.80305C4.52139 7.80305 2.69531 9.64326 2.69531 11.9133C2.69531 14.1833 4.52139 16.0235 6.77396 16.0235H17.9223C20.1748 16.0235 22.0009 14.1833 22.0009 11.9133C22.0009 9.64326 20.1748 7.80305 17.9223 7.80305C17.8056 7.80305 17.6901 7.80799 17.576 7.81766M8.57145 8.2227C8.46323 7.82739 8.40542 7.411 8.40542 6.98101C8.40542 4.40832 10.475 2.32275 13.0279 2.32275C15.5808 2.32275 17.6504 4.40832 17.6504 6.98101C17.6504 7.26662 17.6248 7.54624 17.576 7.81766M15.3391 11.0161C16.4919 10.3441 17.33 9.18476 17.576 7.81766" stroke="#BF92F8"/>
</svg>
