<svg width="28" height="23" viewBox="0 0 28 23" fill="none" xmlns="http://www.w3.org/2000/svg">
<path d="M1.32271 12.6863L1.52655 13.9287L2 16H12L13.1107 13.9287L13.3035 12.5859C13.4613 11.4869 12.8563 10.4201 11.8322 9.99123C11.7664 9.96368 11.716 9.90869 11.6942 9.84076L11.6737 9.77683C11.1574 8.16504 9.65878 7.07153 7.9663 7.07153H6.48065C4.84503 7.07153 3.41873 8.18331 3.01947 9.76945L3.00555 9.82475C2.98611 9.90197 2.93054 9.96502 2.85638 9.994C1.77386 10.4171 1.13453 11.5394 1.32271 12.6863Z" fill="white"/>
<path d="M15.9277 21.2142H26.4344H27.7134V15.3213C27.7134 12.0668 25.0751 9.42847 21.8206 9.42847C18.5661 9.42847 15.9277 12.0668 15.9277 15.3213V21.2142Z" fill="white"/>
<path d="M17.5021 15.9634C19.8784 16.4463 23.2009 13.6159 24.565 12.1402L24.8505 12.8653C25.1853 13.7158 25.3571 14.6217 25.3571 15.5357V18.0725C25.3571 20.2416 23.5987 22 21.4296 22C19.2605 22 17.5021 20.2416 17.5021 18.0725V15.9634Z" fill="white"/>
<path d="M11.0333 13.2134C8.23453 13.2134 5.46658 11.7378 4.43244 11L3.88551 11.6947C3.21358 12.5481 2.84824 13.6028 2.84824 14.689H2.44207C1.64564 14.689 1 15.3347 1 16.1311C1 16.9275 1.64564 17.5732 2.44207 17.5732H2.84824V17.9075C2.84824 20.1677 4.68053 22 6.94077 22C9.20101 22 11.0333 20.1677 11.0333 17.9075V17.5732H11.3735C12.1699 17.5732 12.8155 16.9275 12.8155 16.1311C12.8155 15.3347 12.1699 14.689 11.3735 14.689H11.0333V13.2134Z" fill="white"/>
<path d="M17.5021 15.9634C19.8784 16.4463 23.2009 13.6159 24.565 12.1402L24.8505 12.8653C25.1853 13.7158 25.3571 14.6217 25.3571 15.5357V18.0725C25.3571 20.2416 23.5987 22 21.4296 22C19.2605 22 17.5021 20.2416 17.5021 18.0725V15.9634Z" stroke="#FFDF7B"/>
<path d="M11.0333 13.2134C8.23453 13.2134 5.46658 11.7378 4.43244 11L3.88551 11.6947C3.21358 12.5481 2.84824 13.6028 2.84824 14.689H2.44207C1.64564 14.689 1 15.3347 1 16.1311C1 16.9275 1.64564 17.5732 2.44207 17.5732H2.84824V17.9075C2.84824 20.1677 4.68053 22 6.94077 22C9.20101 22 11.0333 20.1677 11.0333 17.9075V17.5732H11.3735C12.1699 17.5732 12.8155 16.9275 12.8155 16.1311C12.8155 15.3347 12.1699 14.689 11.3735 14.689H11.0333V13.2134Z" stroke="#FFDF7B"/>
<path d="M17.646 4.47661L14.3569 7.85714L11.0677 4.47661C10.2744 3.66126 10.2744 2.36255 11.0677 1.5472C11.8923 0.69965 13.2538 0.69965 14.0785 1.5472L14.3569 1.83333L14.6353 1.5472C15.4599 0.69965 16.8214 0.69965 17.646 1.5472C18.4393 2.36255 18.4393 3.66126 17.646 4.47661Z" fill="white"/>
</svg>
