<svg width="29" height="32" viewBox="0 0 29 32" fill="none" xmlns="http://www.w3.org/2000/svg">
<path fill-rule="evenodd" clip-rule="evenodd" d="M14.6691 17.8676H23.7684C26.1136 17.8676 28.0147 15.9665 28.0147 13.6213C28.0147 11.2761 26.1136 9.375 23.7684 9.375H23.3824V6.81545C23.3824 3.05138 20.331 0 16.5669 0H14.6305C10.6634 0 7.29784 2.9123 6.72794 6.83824H6.01605C2.69348 6.83824 0 9.53171 0 12.8543C0 15.6231 2.24456 17.8676 5.01337 17.8676H14.6691ZM22.1486 18.6885L19.8324 23.762L21.1969 24.3849L23.5131 19.3114L22.1486 18.6885ZM12.0015 18.6885L9.68534 23.762L11.0499 24.3849L13.366 19.3114L12.0015 18.6885ZM6.37651 18.6885L4.06034 23.762L5.42487 24.3849L7.74105 19.3114L6.37651 18.6885ZM16.8545 18.6885L14.5383 23.762L15.9028 24.3849L18.219 19.3114L16.8545 18.6885ZM21.9206 25.615L19.6045 30.6885L20.969 31.3114L23.2852 26.2379L21.9206 25.615ZM6.14857 25.615L3.8324 30.6885L5.19693 31.3114L7.51311 26.2379L6.14857 25.615ZM11.7736 25.615L9.4574 30.6885L10.8219 31.3114L13.1381 26.2379L11.7736 25.615ZM16.6265 25.615L14.3103 30.6885L15.6749 31.3114L17.991 26.2379L16.6265 25.615Z" fill="white"/>
</svg>
