<svg width="31" height="31" viewBox="0 0 31 31" fill="none" xmlns="http://www.w3.org/2000/svg">
<path fill-rule="evenodd" clip-rule="evenodd" d="M15.5543 2.56284C15.853 2.50922 16.2979 2.33933 16.674 1.98344C17.0658 1.61276 17.4206 1.00636 17.4206 0H18.9206C18.9206 1.40868 18.4033 2.4123 17.7049 3.07303C17.2614 3.49263 16.76 3.76024 16.3043 3.91352V7.51959L21.96 3.58081L21.857 10.7904L25.036 8.95495C24.9409 8.48363 24.9219 7.91558 25.0636 7.32172C25.2866 6.38658 25.8971 5.43676 27.1171 4.73242L27.8671 6.03146C26.9955 6.53464 26.6478 7.14509 26.5226 7.66973C26.4025 8.17341 26.4778 8.64366 26.5807 8.92913C26.7765 9.16099 27.1461 9.46134 27.6424 9.60914C28.1593 9.76309 28.8618 9.76715 29.7334 9.26397L30.4834 10.563C29.2634 11.2673 28.1356 11.3211 27.2142 11.0467C26.6291 10.8725 26.1466 10.572 25.786 10.254L22.6677 12.0543L28.9301 14.9939L22.3145 18.3321L25.7861 20.3364C26.1467 20.0183 26.6291 19.7179 27.2142 19.5436C28.1356 19.2692 29.2634 19.323 30.4834 20.0273L29.7334 21.3264C28.8619 20.8232 28.1593 20.8273 27.6424 20.9812C27.1461 21.129 26.7765 21.4294 26.5808 21.6612C26.4779 21.9467 26.4025 22.4169 26.5227 22.9206C26.6478 23.4453 26.9956 24.0557 27.8671 24.5589L27.1171 25.8579C25.8972 25.1536 25.2867 24.2038 25.0636 23.2686C24.922 22.6748 24.9409 22.1067 25.0361 21.6354L21.6137 19.6595L22.0247 26.9541L16.3043 22.9703V26.6771C16.76 26.8303 17.2614 27.0979 17.7049 27.5175C18.4033 28.1783 18.9206 29.1819 18.9206 30.5906H17.4206C17.4206 29.5842 17.0658 28.9778 16.674 28.6071C16.2979 28.2512 15.853 28.0814 15.5543 28.0277C15.2556 28.0814 14.8107 28.2512 14.4346 28.6071C14.0428 28.9778 13.688 29.5842 13.688 30.5906H12.188C12.188 29.1819 12.7053 28.1783 13.4036 27.5175C13.8471 27.0979 14.3485 26.8303 14.8043 26.6771V22.9702L9.12695 26.9241L9.33183 19.7535L6.07235 21.6354C6.16747 22.1067 6.18643 22.6748 6.04479 23.2686C5.82174 24.2038 5.21124 25.1536 3.99129 25.8579L3.24129 24.5589C4.11282 24.0557 4.46058 23.4453 4.58572 22.9206C4.70585 22.4169 4.63053 21.9467 4.52763 21.6612C4.33186 21.4294 3.96227 21.129 3.466 20.9812C2.94908 20.8273 2.24653 20.8232 1.375 21.3264L0.625 20.0273C1.84495 19.323 2.97277 19.2692 3.89415 19.5436C4.47927 19.7179 4.96174 20.0183 5.32235 20.3364L8.53699 18.4804L2.17834 15.4956L8.70068 12.2044L5.32239 10.254C4.96178 10.572 4.47931 10.8725 3.8942 11.0467C2.97281 11.3211 1.84499 11.2673 0.625046 10.563L1.37505 9.26397C2.24658 9.76715 2.94913 9.76309 3.46604 9.60914C3.96231 9.46134 4.3319 9.16099 4.52767 8.92913C4.63058 8.64366 4.7059 8.17341 4.58576 7.66973C4.46063 7.14509 4.11287 6.53464 3.24133 6.03146L3.99133 4.73242C5.21128 5.43676 5.82179 6.38658 6.04483 7.32172C6.18648 7.91558 6.16752 8.48363 6.07239 8.95495L9.50055 10.9342L9.08374 3.53589L14.8043 7.51983V3.91352C14.3485 3.76024 13.8471 3.49263 13.4036 3.07303C12.7053 2.4123 12.188 1.40868 12.188 0H13.688C13.688 1.00636 14.0428 1.61276 14.4346 1.98344C14.8107 2.33933 15.2556 2.50922 15.5543 2.56284ZM18.0222 17.5859L20.0608 18.7629L20.3537 23.9625L16.3043 21.1423V18.5778C16.6958 18.4887 17.0614 18.3313 17.3879 18.1189C17.5419 18.019 17.6886 17.906 17.826 17.7803C17.8944 17.7179 17.9598 17.653 18.0222 17.5859ZM20.7617 17.4355L25.5038 15.0426L21.0847 12.9683L18.7721 14.3035C18.795 14.3779 18.8154 14.4534 18.8332 14.5299C18.8903 14.7743 18.9192 15.022 18.9209 15.2683C18.9233 15.5308 18.8949 15.7951 18.8343 16.0557C18.8163 16.1338 18.7955 16.2109 18.7722 16.2869L20.7617 17.4355ZM16.3043 12.0127V9.34751L20.4184 6.48234L20.3443 11.6637L18.0222 13.0044C17.9473 12.9237 17.8679 12.8463 17.7843 12.7725C17.6345 12.64 17.4742 12.5223 17.3058 12.4199C17.0115 12.2403 16.6875 12.1045 16.3429 12.0218L16.3043 12.0127ZM10.2536 13.101L5.6046 15.4469L10.12 17.5664L12.3365 16.2867C12.2331 15.9522 12.1845 15.6088 12.1875 15.2685C12.1895 14.9847 12.2274 14.6993 12.3032 14.419C12.3136 14.3802 12.3247 14.3418 12.3364 14.3035L10.2536 13.101ZM14.8043 18.5778V21.1423L10.7113 23.9928L10.8576 18.8726L13.0862 17.5859C13.1487 17.6532 13.2142 17.7181 13.2827 17.7806C13.4321 17.9172 13.5923 18.0388 13.7611 18.1448C14.0772 18.3442 14.4288 18.4924 14.8043 18.5778ZM14.8043 9.34775L10.7547 6.52748L11.0534 11.8308L13.0862 13.0044C13.1604 12.9245 13.239 12.8478 13.3217 12.7746C13.4835 12.6313 13.6574 12.5053 13.8406 12.3972C14.1165 12.2336 14.4178 12.1084 14.7371 12.0288C14.7595 12.0232 14.7819 12.0178 14.8043 12.0127V9.34775Z" fill="white"/>
</svg>
