<svg width="27" height="23" viewBox="0 0 27 23" fill="none" xmlns="http://www.w3.org/2000/svg">
<path fill-rule="evenodd" clip-rule="evenodd" d="M22.168 3.8388C20.834 2.50165 18.6678 2.50165 17.3339 3.8388C15.2185 5.95924 11.7834 5.95924 9.66797 3.8388C8.334 2.50165 6.16783 2.50165 4.83386 3.8388L1.70887 6.97125L0.292969 5.55872L3.41797 2.42627C5.53337 0.305827 8.96846 0.305827 11.0839 2.42627C12.4178 3.76342 14.584 3.76342 15.918 2.42627C18.0334 0.305827 21.4685 0.305826 23.5839 2.42627L26.7089 5.55872L25.293 6.97125L22.168 3.8388ZM22.168 11.7063C20.834 10.3692 18.6678 10.3692 17.3339 11.7063C15.2185 13.8268 11.7834 13.8268 9.66797 11.7063C8.334 10.3692 6.16783 10.3692 4.83386 11.7063L1.70887 14.8388L0.292969 13.4263L3.41797 10.2938C5.53337 8.17338 8.96846 8.17338 11.0839 10.2938C12.4178 11.631 14.584 11.631 15.918 10.2938C18.0334 8.17338 21.4685 8.17338 23.5839 10.2938L26.7089 13.4263L25.293 14.8388L22.168 11.7063ZM9.66797 19.5739C8.334 18.2367 6.16783 18.2367 4.83386 19.5739L1.70887 22.7063L0.292969 21.2938L3.41797 18.1614C5.53337 16.0409 8.96846 16.0409 11.0839 18.1614C12.4178 19.4985 14.584 19.4985 15.918 18.1614C18.0334 16.0409 21.4685 16.0409 23.5839 18.1614L26.7089 21.2938L25.293 22.7063L22.168 19.5739C20.834 18.2367 18.6678 18.2367 17.3339 19.5739C15.2185 21.6943 11.7834 21.6943 9.66797 19.5739Z" fill="white"/>
</svg>
