<svg width="45" height="34" viewBox="0 0 45 34" fill="none" xmlns="http://www.w3.org/2000/svg">
<path fill-rule="evenodd" clip-rule="evenodd" d="M22.016 13.0001C20.6827 12.8334 17.416 13.2001 15.016 16.0001C14.016 17.0001 11.216 18.4002 8.01599 16.0001C8.01599 16.6667 8.21599 18.2 9.01599 19C10.016 20 12.516 21 15.016 20C14.3493 21.3333 13.616 24.4 16.016 26C16.6827 26.6667 18.016 28.6 18.016 31C18.016 33.4 20.6827 34 22.016 34C23.3493 34 26.016 33.4 26.016 31C26.016 28.6 27.3493 26.6667 28.016 26C30.416 24.4 29.6827 21.3333 29.016 20C31.516 21 34.016 20 35.016 19C35.816 18.2 36.016 16.6667 36.016 16.0001C32.816 18.4002 30.016 17.0001 29.016 16.0001C26.616 13.2001 23.3493 12.8334 22.016 13.0001ZM21.0161 30.5L22.016 31L23.0159 30.5C23.0159 30.1667 23.2159 29.5 24.0159 29.5L23.5159 28.5C23.1826 28.5 22.416 28.6 22.016 29C21.616 28.6 20.8494 28.5 20.5161 28.5L20.0161 29.5C20.8161 29.5 21.0161 30.1667 21.0161 30.5ZM20.0161 23C19.8494 22.1667 19.0161 20.5 17.0161 20.5C16.8494 21.6667 17.2161 23.8 20.0161 23ZM24.0159 23C24.1825 22.1667 25.0159 20.5 27.0159 20.5C27.1825 21.6667 26.8159 23.8 24.0159 23Z" fill="white"/>
<path fill-rule="evenodd" clip-rule="evenodd" d="M20.516 11C19.1827 11.3333 16.216 12.3999 15.016 14C14.829 13.1897 14.3763 12.0764 13.5898 11C13.7373 9.33333 13.229 5.7 10.0161 4.5C16.8161 2.9 19.8494 8.16667 20.516 11ZM8.5 4.77672C11.7 6.5981 12.1667 8.57225 12 9.33166C10.6782 8.27416 8.88296 7.5 6.51599 7.5C5.96833 7.5 5.46403 7.45218 5 7.36355C4.5 6.994 3.4 5.77941 3 3.87745C4.31507 4.63852 6.11171 5.07923 8.5 4.77672ZM1.81415 3C0.775379 2.03128 0.217336 0.872423 0.0159913 0C-0.104295 1.80429 0.41783 4.91076 2.82291 6.5C1.88124 5.3 1.75804 3.66667 1.81415 3Z" fill="white"/>
<path fill-rule="evenodd" clip-rule="evenodd" d="M23.5159 11C24.8492 11.3333 27.8159 12.3999 29.0159 14C29.2029 13.1897 29.6556 12.0764 30.4421 11C30.2946 9.33333 30.8029 5.7 34.0157 4.5C27.2157 2.9 24.1825 8.16667 23.5159 11ZM35.5319 4.77672C32.3319 6.5981 31.8652 8.57225 32.0319 9.33166C33.3536 8.27416 35.1489 7.5 37.5159 7.5C38.0635 7.5 38.5678 7.45218 39.0319 7.36355C39.5319 6.994 40.6319 5.77941 41.0319 3.87745C39.7168 4.63852 37.9201 5.07924 35.5319 4.77672ZM42.2177 3C43.2565 2.03128 43.8145 0.872423 44.0159 0C44.1362 1.80429 43.614 4.91076 41.209 6.5C42.1506 5.3 42.2738 3.66667 42.2177 3Z" fill="white"/>
</svg>
