<svg width="30" height="32" viewBox="0 0 30 32" fill="none" xmlns="http://www.w3.org/2000/svg">
<path fill-rule="evenodd" clip-rule="evenodd" d="M15 1.00076C14.6666 0.667431 13.4 0.000765234 11 0.000765234C11.5 0.334099 12.4 1.20076 12 2.00076C11.3333 1.8341 9.49997 1.80076 7.49997 3.00076C4.99997 4.50076 4.49997 5.00077 2.99997 5.00077L4.49997 5.50077C3.16664 6.50077 0.599968 9.60076 0.999968 14.0008C0.999979 14.8341 0.8 16.7008 0 17.5008L2 17.0008C2.5 17.6674 3.4 19.6008 3 22.0008C2.5 25.0008 8.5 26.0008 8.5 30.0008L10.5 26.5008C10.5 27.1674 10.7999 28.7008 12 29.5008C13.5 30.5008 14.4999 31.0008 15 32.0008C15.5 31.0008 16.4999 30.5 18 29.5C19.2 28.7 19.5 27.1667 19.4999 26.5L21.4999 30C21.4999 26 27.4999 25 26.9999 22C26.5999 19.6 27.4999 17.6667 27.9999 17L29.9999 17.5C29.1999 16.7 29 14.8333 29 14C29.4 9.6 26.8333 6.5 25.5 5.5L27 5C25.5 5 25 4.5 22.5 3C20.5 1.8 18.6666 1.83333 18 2C17.6 1.2 18.5 0.333333 19 0C16.6 0 15.3333 0.667431 15 1.00076ZM9.5 8C11.1 6.8 13.8333 7.5 15 8C16.1667 7.5 18.9 6.8 20.5 8C20.1667 9.5 20.3 12.5 23.5 12.5C23.6667 13.1667 23.8 14.7 23 15.5C22 16.5 22 16.5 22 18C22 19.4154 21.5548 23.502 16.4635 22.278C15.8828 22.1385 15.5 21.5972 15.5 21V20C15.6667 19.5 15.8 18.5 17 18.5C16.6936 17.8871 16.0174 17.3718 15.4112 17.6912C15.2741 17.7634 15.1371 17.8629 15 18C14.8629 17.8629 14.7259 17.7634 14.5888 17.6912C13.9826 17.3718 13.3064 17.8871 13 18.5C14.2 18.5 14.3333 19.5 14.5 20V21C14.5 21.5972 14.1172 22.1385 13.5365 22.278C8.4452 23.502 8 19.4154 8 18C8 16.5 8 16.5 7 15.5C6.2 14.7 6.33333 13.1667 6.5 12.5C9.7 12.5 9.83333 9.5 9.5 8ZM15 22.5C13.8 23.7 12.1667 23.6667 11.5 23.5C11.6667 24.1667 12.6 25.5 15 25.5C17.4 25.5 18.3333 24.1667 18.5 23.5C17.8333 23.6667 16.2 23.7 15 22.5ZM6 11.5C8.8 11.1 8.83333 8.33333 8.5 7C7.83333 6.16667 6.1 5 4.5 7C2.9 9 4.83333 10.8333 6 11.5ZM24 11.5C21.2 11.1 21.1667 8.33333 21.5 7C22.1667 6.16667 23.9 5 25.5 7C27.1 9 25.1667 10.8333 24 11.5Z" fill="white"/>
<path d="M23.5 10C24 9.5 24.9 8.3 24.5 7.5C24.1 6.7 23 7.5 22.5 8L23 9L23.5 10Z" fill="white"/>
<path d="M6.5 10C6 9.5 5.1 8.3 5.5 7.5C5.9 6.7 7 7.5 7.5 8L7 9L6.5 10Z" fill="white"/>
<path d="M10 13C10.8333 12.8333 12.6 13 13 15C12.1667 15.3333 10.4 15.4 10 13Z" fill="white"/>
<path d="M20 13C19.1667 12.8333 17.4 13 17 15C17.8333 15.3333 19.6 15.4 20 13Z" fill="white"/>
</svg>
