<svg width="32" height="36" viewBox="0 0 32 36" fill="none" xmlns="http://www.w3.org/2000/svg">
<circle cx="16.4312" cy="17.6274" r="9.74124" transform="rotate(49.0587 16.4312 17.6274)" fill="#7F38EA"/>
<path d="M13.7934 20.0877C21.0315 28.4314 28.0828 34.1685 29.5429 32.9018C30.4659 32.1011 28.9917 28.6436 25.9115 24.1375L25.3938 24.5866C27.4189 27.6895 28.4163 29.9076 27.9548 30.308C27.1204 31.0318 21.4565 25.8693 15.3041 18.7771C9.15177 11.685 4.84067 5.34889 5.67504 4.62508C6.17397 4.19226 8.53484 5.74708 11.668 8.58361L12.1505 8.27451C7.80446 4.19121 4.30556 1.84158 3.33149 2.68658C1.87135 3.95324 6.55529 11.744 13.7934 20.0877Z" fill="#E38CF9"/>
</svg>
