<svg width="155" height="39" viewBox="0 0 155 39" fill="none" xmlns="http://www.w3.org/2000/svg">
<g clip-path="url(#clip0)">
<path d="M50.1246 36.7615C51.6252 38.2435 53.5869 39.0001 56.0383 39.0001C57.6613 39.0001 59.0099 38.5769 60.0515 37.7297C61.0931 36.8814 61.6143 35.7933 61.6143 34.4927C61.6439 31.5872 58.6723 30.4074 56.4361 29.7113C54.8733 29.136 53.6175 28.4096 53.6175 27.3206C53.6175 26.0804 54.6591 25.4144 56.2525 25.4144C57.6919 25.4144 59.2854 25.9292 60.1739 26.7765L61.3685 24.6578C60.1127 23.5385 58.4274 22.9633 56.3433 22.9633C53.1574 22.9633 50.7683 24.5974 50.7683 27.381C50.7683 30.347 53.6787 31.3756 55.9149 32.1926C57.4777 32.7679 58.7335 33.4933 58.7335 34.5521C58.7335 35.7933 57.6919 36.5489 56.0995 36.5489C54.2918 36.5489 52.7902 35.9444 51.5344 34.7647L50.1246 36.7615ZM65.7885 33.0389C65.7885 36.0956 67.2289 37.5776 68.7907 38.2435C69.9251 38.6978 70.783 38.7885 71.7328 38.7885C71.947 38.7885 72.2837 38.7583 72.7743 38.6978V36.0946C71.9783 36.2482 71.1536 36.1531 70.4148 35.8226C69.5568 35.4296 68.7611 34.5219 68.7611 32.7064V25.8688H72.4989V23.4781H68.7601V19.1208H65.8497V23.4781H63.7666V25.8688H65.7885V33.0389ZM78.7986 38.6374V32.2823C78.7986 30.618 79.1965 29.1653 79.9932 27.9241C80.8205 26.6849 81.9845 26.0492 83.5473 26.0492C83.9462 26.0492 84.2522 26.0784 84.4062 26.1096V23.2051C84.0686 23.1758 83.8238 23.1456 83.6085 23.1456C81.3112 23.1456 79.4423 24.8694 78.6762 27.1997H78.615L78.7068 26.0804V23.327H75.8269V38.6374H78.7986ZM85.8565 30.9515C85.8565 33.2515 86.6523 35.1576 88.2763 36.7001C89.9003 38.2435 91.8916 39.0001 94.2196 39.0001C96.5495 39.0001 98.5093 38.2435 100.133 36.701C101.757 35.1576 102.554 33.2515 102.554 30.9515C102.554 28.6524 101.757 26.7463 100.133 25.2331C98.5093 23.7199 96.5495 22.9633 94.19 22.9633C91.861 22.9633 89.9003 23.7199 88.2763 25.2633C86.6532 26.7765 85.8565 28.6826 85.8565 30.9515ZM88.8894 30.9515C88.8894 29.3778 89.4097 28.0772 90.4216 27.0485C91.4632 26.0199 92.719 25.5051 94.2206 25.5051C95.6916 25.5051 96.9474 26.0199 97.989 27.0485C99.0305 28.0772 99.5508 29.3788 99.5508 30.9515C99.5508 32.5251 99.0305 33.8258 97.989 34.8846C96.9474 35.9444 95.6906 36.4583 94.2206 36.4583C92.719 36.4583 91.4632 35.9444 90.4216 34.9148C89.4097 33.856 88.8894 32.5553 88.8894 30.9515ZM109.108 38.6374V31.4965C109.108 29.9531 109.536 28.591 110.394 27.4112C111.252 26.2315 112.386 25.627 113.764 25.627C115.878 25.627 116.43 27.0485 116.43 29.4685V38.6374H119.402V31.4965C119.402 29.9531 119.831 28.591 120.657 27.4112C121.515 26.2315 122.619 25.627 123.997 25.627C126.111 25.627 126.724 27.0183 126.724 29.4685V38.6374H129.696V28.8338C129.696 24.8694 128.103 22.9643 124.58 22.9643C123.385 22.9558 122.218 23.3154 121.24 23.9929C120.229 24.6881 119.524 25.5051 119.065 26.4431H119.004C118.483 24.1128 116.92 22.9633 114.378 22.9633C113.213 22.9633 112.11 23.327 111.099 24.0533C110.088 24.7787 109.383 25.626 108.985 26.564H108.924L109.016 25.4144V23.327H106.136V38.6374H109.108ZM135.642 20.2411C136.04 20.2411 136.422 20.0848 136.704 19.8067C136.986 19.5286 137.144 19.1514 137.144 18.7581C137.144 18.3648 136.986 17.9876 136.704 17.7095C136.422 17.4314 136.04 17.2751 135.642 17.2751H135.581C135.183 17.2751 134.801 17.4313 134.519 17.7093C134.238 17.9874 134.08 18.3644 134.08 18.7576C134.08 19.1508 134.238 19.5279 134.519 19.8059C134.801 20.0839 135.183 20.2401 135.581 20.2401H135.642V20.2411ZM137.112 38.6374V23.327H134.14V38.6374H137.112ZM143.274 38.6374L146.521 33.5235L146.981 32.7064H147.042L147.533 33.5235L150.78 38.6374H154.15L148.85 30.7701L153.843 23.327H150.443L147.563 27.9865C147.409 28.2595 147.256 28.5617 147.042 28.8932H146.981L146.49 27.9865L143.61 23.326H140.21L145.204 30.7701L139.903 38.6374H143.274ZM33.0706 38.6374L39.3516 16.772L45.5713 38.6374H48.696L40.945 13.1489H37.7275L29.9766 38.6374H33.0706Z" fill="#2F056E"/>
<path fill-rule="evenodd" clip-rule="evenodd" d="M53.1444 9.30713C53.5788 7.59405 53.3913 6.38213 52.9026 5.53095C52.4139 4.6788 51.4592 3.89588 49.7483 3.38205C48.0166 2.86238 45.6827 2.68005 42.8325 2.95305C37.1409 3.49905 29.9399 5.81273 22.6756 9.8736C15.4103 13.9345 9.69705 18.8417 6.29298 23.3803C4.58896 25.652 3.54642 27.7229 3.1061 29.4565C2.6717 31.1705 2.85928 32.3815 3.34798 33.2327C3.83667 34.0848 4.79036 34.8677 6.50228 35.3816C8.23393 35.9012 10.5678 36.0836 13.4171 35.8106C19.1096 35.2646 26.3107 32.9519 33.5749 28.89C40.8402 24.8291 46.5535 19.922 49.9576 15.3833C51.6616 13.1116 52.7041 11.0407 53.1444 9.30713ZM34.9857 31.3509C50.0454 22.9318 59.1835 10.7482 55.3934 4.13865C51.6053 -2.47185 36.3255 -1.00642 21.2648 7.4127C6.20511 15.8318 -2.93199 28.0154 0.856129 34.625C4.64524 41.2355 19.9251 39.77 34.9857 31.3509Z" fill="#2F056E"/>
</g>
<defs>
<clipPath id="clip0">
<rect width="155" height="39" fill="white"/>
</clipPath>
</defs>
</svg>
