<svg width="29" height="30" viewBox="0 0 29 30" fill="none" xmlns="http://www.w3.org/2000/svg">
<path fill-rule="evenodd" clip-rule="evenodd" d="M0 13.938H7.53101C7.0814 10.5284 7.75581 2.96744 14.0504 0C9.36692 0.412145 0 3.77674 0 13.938ZM8.76744 13.938C8.4677 10.7532 9.21705 3.57442 14.6124 0.337209C20.0078 3.57442 20.7571 10.7532 20.4574 13.938H14.6124H8.76744ZM21.469 13.938H29C29 3.77674 19.6331 0.412145 14.9496 0C21.2442 2.96744 21.9186 10.5284 21.469 13.938ZM13.8626 15.624V25.2345C13.8626 26.8999 12.5125 28.25 10.847 28.25C9.18163 28.25 7.83154 26.8999 7.83154 25.2345V23.4922H6.33154V25.2345C6.33154 27.7283 8.3532 29.75 10.847 29.75C13.3409 29.75 15.3626 27.7283 15.3626 25.2345V15.624H13.8626Z" fill="white"/>
</svg>
