<svg width="46" height="28" viewBox="0 0 46 28" fill="none" xmlns="http://www.w3.org/2000/svg">
<path d="M29.1841 3.21191H16.9961V24.2097H29.1841V3.21191Z" fill="#FF5F00"/>
<path d="M17.7688 13.7129C17.7688 9.44658 19.8581 5.66253 23.0696 3.21402C20.7094 1.43329 17.7301 0.357422 14.4799 0.357422C6.78021 0.357422 0.550781 6.3303 0.550781 13.7129C0.550781 21.0956 6.78021 27.0684 14.4799 27.0684C17.7301 27.0684 20.7094 25.9926 23.0696 24.2118C19.8581 21.8004 17.7688 17.9793 17.7688 13.7129Z" fill="#EB001B"/>
<path d="M45.6262 13.711C45.6262 21.0936 39.3968 27.0665 31.6971 27.0665C28.4469 27.0665 25.4676 25.9906 23.1074 24.2099C26.3576 21.7614 28.4082 17.9773 28.4082 13.711C28.4082 9.44463 26.3189 5.66058 23.1074 3.21207C25.4676 1.43133 28.4469 0.355469 31.6971 0.355469C39.3968 0.355469 45.6262 6.36545 45.6262 13.711Z" fill="#F79E1B"/>
</svg>
