<svg width="31" height="31" viewBox="0 0 31 31" fill="none" xmlns="http://www.w3.org/2000/svg">
<path fill-rule="evenodd" clip-rule="evenodd" d="M19.9852 6.50651C19.4622 6.78266 18.8152 6.54715 18.5921 5.99947L16.6671 1.27364C16.3289 0.44329 15.1531 0.443291 14.8149 1.27365L12.8899 5.99947C12.6668 6.54715 12.0198 6.78266 11.4968 6.50651L6.98454 4.12366C6.1917 3.70498 5.291 4.46076 5.56564 5.31426L7.12874 10.1718C7.30989 10.7347 6.9656 11.3311 6.3875 11.4557L1.3992 12.5308C0.522726 12.7197 0.318555 13.8776 1.07756 14.3548L5.39733 17.0712C5.89795 17.386 6.01752 18.0641 5.65476 18.5312L2.52455 22.5611C1.97456 23.2692 2.56245 24.2875 3.45067 24.1652L8.50584 23.4694C9.09169 23.3887 9.61917 23.8314 9.64149 24.4223L9.83404 29.5215C9.86787 30.4175 10.9727 30.8196 11.5746 30.155L14.9998 26.3726C15.3967 25.9342 16.0853 25.9342 16.4823 26.3726L19.9075 30.155C20.5093 30.8196 21.6142 30.4175 21.648 29.5215L21.8405 24.4223C21.8629 23.8314 22.3903 23.3887 22.9762 23.4694L28.0314 24.1652C28.9196 24.2875 29.5075 23.2692 28.9575 22.5611L25.8273 18.5312C25.4645 18.0641 25.5841 17.386 26.0847 17.0712L30.4045 14.3548C31.1635 13.8776 30.9593 12.7197 30.0828 12.5308L25.0945 11.4557C24.5164 11.3311 24.1721 10.7347 24.3533 10.1718L25.9164 5.31426C26.191 4.46076 25.2903 3.70498 24.4975 4.12366L19.9852 6.50651ZM15.741 21.5073C18.7824 21.5073 21.248 19.0417 21.248 16.0002C21.248 12.9588 18.7824 10.4932 15.741 10.4932C12.6995 10.4932 10.2339 12.9588 10.2339 16.0002C10.2339 19.0417 12.6995 21.5073 15.741 21.5073Z" fill="white"/>
</svg>
