<svg width="24" height="25" viewBox="0 0 24 25" fill="none" xmlns="http://www.w3.org/2000/svg">
<path d="M0.943542 21.0827C0.943542 22.8882 2.33233 24.2771 4.13789 24.2771H20.5268C22.3324 24.2771 23.7214 22.8882 23.7214 21.0827V10.666H0.804688V21.0827H0.943542ZM18.5824 13.5827C19.1379 13.5827 19.6935 13.9993 19.6935 14.6938C19.6935 15.2493 19.2768 15.8049 18.5824 15.8049C18.0268 15.8049 17.4714 15.3882 17.4714 14.6938C17.6102 14.1382 18.0268 13.5827 18.5824 13.5827ZM12.3324 13.5827C12.8879 13.5827 13.4435 13.9993 13.4435 14.6938C13.4435 15.2493 13.0268 15.8049 12.3324 15.8049C11.7768 15.8049 11.2214 15.3882 11.2214 14.6938C11.3602 14.1382 11.7768 13.5827 12.3324 13.5827ZM12.3324 18.7216C12.8879 18.7216 13.4435 19.1382 13.4435 19.8327C13.4435 20.3882 13.0268 20.9438 12.3324 20.9438C11.7768 20.9438 11.2214 20.5271 11.2214 19.8327C11.2214 19.1382 11.7768 18.7216 12.3324 18.7216ZM6.08236 13.5827C6.63792 13.5827 7.19354 13.9993 7.19354 14.6938C7.19354 15.2493 6.77681 15.8049 6.08236 15.8049C5.52681 15.8049 4.97135 15.3882 4.97135 14.6938C5.11024 14.1382 5.52681 13.5827 6.08236 13.5827ZM6.08236 18.7216C6.63792 18.7216 7.19354 19.1382 7.19354 19.8327C7.19354 20.3882 6.77681 20.9438 6.08236 20.9438C5.52681 20.9438 4.97135 20.5271 4.97135 19.8327C5.11024 19.1382 5.52681 18.7216 6.08236 18.7216Z" fill="white"/>
<path d="M20.5274 3.5831H17.7496V1.49977C17.7496 0.94421 17.3329 0.388672 16.6384 0.388672C15.944 0.388672 15.5274 0.805322 15.5274 1.49977V3.5831H8.72182V1.49977C8.72182 0.94421 8.30509 0.388672 7.61064 0.388672C6.9162 0.388672 6.49963 0.805322 6.49963 1.49977V3.5831H3.72186C1.9163 3.5831 0.527344 4.97201 0.527344 6.77757V9.41645H23.444V6.77757C23.8607 4.97201 22.3329 3.5831 20.5274 3.5831Z" fill="white"/>
</svg>
