<svg width="38" height="25" viewBox="0 0 38 25" fill="none" xmlns="http://www.w3.org/2000/svg">
<path d="M37 1L15.8658 22.0581M31.6904 1L9.80801 22.8035C8.03441 24.5708 5.16559 24.5708 3.39199 22.8035L2.1547 21.5707C0.424183 19.8464 0.451201 17.036 2.21455 15.3453V15.3453C3.49502 14.1176 5.52155 14.1371 6.77819 15.3892L6.8926 15.5032C8.2686 16.8742 8.2325 19.1133 6.81301 20.4392L6.07945 21.1245M26.1726 1L14.7012 12.4301C12.9276 14.1973 10.0587 14.1973 8.28514 12.4301L7.04785 11.1973C5.31733 9.47299 5.34435 6.66254 7.1077 4.97185V4.97185C8.38817 3.74413 10.4147 3.76361 11.6713 5.01572L11.7857 5.12972C13.1618 6.50076 13.1257 8.73982 11.7062 10.0658L10.9726 10.751" stroke="white" stroke-width="1.5"/>
</svg>
