<svg width="30" height="31" viewBox="0 0 30 31" fill="none" xmlns="http://www.w3.org/2000/svg">
<path fill-rule="evenodd" clip-rule="evenodd" d="M14.6143 15.9429H4.5796C2.02184 15.9429 -0.182588 13.9836 0.244917 11.4619C1.14158 6.17262 4.72532 0 14.6143 0C24.5033 0 28.087 6.17262 28.9837 11.4619C29.4112 13.9836 27.2067 15.9429 24.649 15.9429H14.6143ZM14.6143 13.2885C15.8372 13.2885 16.8286 12.2971 16.8286 11.0742C16.8286 9.8513 15.8372 8.85993 14.6143 8.85993C13.3914 8.85993 12.4 9.8513 12.4 11.0742C12.4 12.2971 13.3914 13.2885 14.6143 13.2885ZM5.75713 13.2885C6.98005 13.2885 7.97142 12.2971 7.97142 11.0742C7.97142 9.8513 6.98005 8.85993 5.75713 8.85993C4.53422 8.85993 3.54285 9.8513 3.54285 11.0742C3.54285 12.2971 4.53422 13.2885 5.75713 13.2885ZM23.3726 13.2885C24.5955 13.2885 25.5868 12.2971 25.5868 11.0742C25.5868 9.8513 24.5955 8.85993 23.3726 8.85993C22.1496 8.85993 21.1583 9.8513 21.1583 11.0742C21.1583 12.2971 22.1496 13.2885 23.3726 13.2885ZM10.3726 8.00279C11.5955 8.00279 12.5868 7.01142 12.5868 5.7885C12.5868 4.56559 11.5955 3.57422 10.3726 3.57422C9.14964 3.57422 8.15827 4.56559 8.15827 5.7885C8.15827 7.01142 9.14964 8.00279 10.3726 8.00279ZM19.0868 8.00279C20.3098 8.00279 21.3011 7.01142 21.3011 5.7885C21.3011 4.56559 20.3098 3.57422 19.0868 3.57422C17.8639 3.57422 16.8726 4.56559 16.8726 5.7885C16.8726 7.01142 17.8639 8.00279 19.0868 8.00279Z" fill="white"/>
<path d="M9.96619 25.3507L11.2126 19H18.0165L19.2629 25.3507C19.8373 28.2772 17.5969 31.0001 14.6146 31.0001C11.6322 31.0001 9.39182 28.2772 9.96619 25.3507Z" fill="white"/>
</svg>
