<svg width="40" height="29" viewBox="0 0 40 29" fill="none" xmlns="http://www.w3.org/2000/svg">
<path d="M8 0C15.2 1.2 18.3333 6.16667 19 8.5L13.5 11L12.5 7.5C12.5 3.5 9.5 0.833333 8 0Z" fill="white"/>
<path d="M32 0C24.8 1.2 21.6667 6.16667 21 8.5L26.5 11L27.5 7.5C27.5 3.5 30.5 0.833333 32 0Z" fill="white"/>
<path d="M6.5 0C8.9 2 10.1667 4.83333 10.5 6C8.5 4.83333 4.5 3.5 4.5 7.5C4.5 11.5 5.83333 15.1667 6.5 16.5C4.33333 15.8333 0 13.1 0 7.5C0 1.9 4.33333 0.166667 6.5 0Z" fill="white"/>
<path d="M33.5 0C31.1 2 29.8333 4.83333 29.5 6C31.5 4.83333 35.5 3.5 35.5 7.5C35.5 11.5 34.1667 15.1667 33.5 16.5C35.6667 15.8333 40 13.1 40 7.5C40 1.9 35.6667 0.166667 33.5 0Z" fill="white"/>
<path d="M28.0593 8.43958C27.5525 8.75917 27.1669 9.07326 26.9002 9.34505C24.4344 7.86786 21.3153 7.5 20.001 7.5C18.6866 7.5 15.5675 7.86786 13.1017 9.34505C12.835 9.07326 12.4494 8.75917 11.9427 8.43958C11.1666 7.95015 10.081 7.43142 8.63831 7.01924L8.0772 6.85892L8.00481 7.43798C7.91368 8.16704 7.94134 9.31738 8.31318 10.4553C8.6509 11.4888 9.28456 12.5436 10.4004 13.2366C9.9687 14.8105 9.91389 17.7652 12.5184 19.7648C12.6387 21.2324 13.1127 23.3106 14.1865 25.0727C15.3296 26.9484 17.1805 28.5 20.001 28.5C22.8214 28.5 24.6723 26.9484 25.8154 25.0727C26.8893 23.3106 27.3633 21.2324 27.4835 19.7648C30.088 17.7652 30.0332 14.8105 29.6016 13.2366C30.7174 12.5436 31.351 11.4888 31.6887 10.4553C32.0606 9.31738 32.0882 8.16704 31.9971 7.43798L31.9247 6.85892L31.3636 7.01924C29.921 7.43142 28.8353 7.95015 28.0593 8.43958ZM15.4213 15.5687C15.8824 15.7004 16.2401 16.0411 16.4037 16.4703C15.4696 16.3729 14.8979 16.0496 14.5531 15.7075C14.3941 15.5498 14.2766 15.3815 14.1919 15.2174L15.4213 15.5687ZM25.4488 15.7075C25.104 16.0496 24.5323 16.3729 23.5983 16.4703C23.7618 16.0411 24.1195 15.7004 24.5806 15.5687L25.81 15.2174C25.7253 15.3815 25.6078 15.5498 25.4488 15.7075ZM19.2795 22.0516C19.3463 22.0186 19.4215 22 19.501 22H20.001H20.501C20.5805 22 20.6556 22.0186 20.7224 22.0516C20.3049 22.188 20.0029 22.5798 20.001 23.0424C19.999 22.5798 19.697 22.188 19.2795 22.0516Z" fill="white" stroke="#FF9E67"/>
</svg>
