<svg width="37" height="34" viewBox="0 0 37 34" fill="none" xmlns="http://www.w3.org/2000/svg">
<path d="M15.0002 11.0002C15.0002 11.8286 14.3286 12.5002 13.5002 12.5002C12.6717 12.5002 12.0002 11.8286 12.0002 11.0002C12.0002 10.1717 12.6717 9.50017 13.5002 9.50017C14.3286 9.50017 15.0002 10.1717 15.0002 11.0002Z" fill="white"/>
<path fill-rule="evenodd" clip-rule="evenodd" d="M8.09199 9.57681L7.56345 11.1624L8.95204 11.9956C8.81791 12.0942 8.69244 12.2007 8.57729 12.3159C8.23547 12.6577 8.02458 13.142 7.90666 13.6722C7.78736 14.2086 7.75394 14.8326 7.79931 15.5002L6.90113 15.1624C6.7789 14.8518 6.66523 14.5187 6.56345 14.1624C5.7279 13.6054 5.1018 11.0471 5.61844 8.58739L8.09199 9.57681Z" fill="white"/>
<path d="M8.51028 8.50002C9.71028 6.10002 12.6769 4.16669 14.0103 3.50002H10.0103L14.5103 2.28882e-05C5.31028 2.28882e-05 5.01028 5.00002 6.01028 7.50002L8.51028 8.50002Z" fill="white"/>
<path d="M3 10.5C3.30125 15.0187 5.41749 16.7015 7.93911 17.257C8.04725 17.7661 8.19514 18.2909 8.38354 18.8183C2.93782 17.8278 1.5 13.0323 1.5 10.5H3Z" fill="white"/>
<path d="M1 15.5C2.60192 18.3835 6.23539 19.5348 8.8173 19.8789C8.87063 19.9941 8.92592 20.1091 8.9832 20.2236C9.1911 20.6393 9.4261 21.0512 9.68875 21.4521C4.10558 21.0385 0.929537 18.0493 0 16.5L1 15.5Z" fill="white"/>
<path fill-rule="evenodd" clip-rule="evenodd" d="M13.8236 25.1224C11.6395 26.3793 10.1692 28.5884 11.1299 32.914L9.69048 33.3359C9.05764 31.1767 9.01153 26.9837 12.4795 24.3345C12.8978 24.6295 13.3457 24.8945 13.8236 25.1224ZM6.56345 28C6.88606 26.764 8.08396 24.5211 10.6109 22.6178C10.9191 22.9799 11.2537 23.3253 11.6155 23.6476C9.89481 24.8318 8.29452 26.5066 7.80434 28.6784L6.56345 28Z" fill="white"/>
<path d="M21.0019 11.0001C21.0019 11.8286 21.6735 12.5001 22.5019 12.5001C23.3303 12.5001 24.0019 11.8286 24.0019 11.0001C24.0019 10.1717 23.3303 9.50015 22.5019 9.50015C21.6735 9.50015 21.0019 10.1717 21.0019 11.0001Z" fill="white"/>
<path fill-rule="evenodd" clip-rule="evenodd" d="M27.9101 9.57678L28.4386 11.1624L27.05 11.9956C27.1842 12.0942 27.3097 12.2007 27.4248 12.3159C27.7666 12.6577 27.9775 13.1419 28.0954 13.6722C28.2147 14.2086 28.2482 14.8325 28.2028 15.5002L29.101 15.1624C29.2232 14.8517 29.3369 14.5187 29.4386 14.1624C30.2742 13.6054 30.9003 11.0471 30.3836 8.58736L27.9101 9.57678Z" fill="white"/>
<path d="M27.4918 8.5C26.2918 6.1 23.3251 4.16667 21.9918 3.5H25.9918L21.4918 0C30.6918 0 30.9918 5 29.9918 7.5L27.4918 8.5Z" fill="white"/>
<path d="M33.0021 10.5C32.7008 15.0187 30.5846 16.7015 28.063 17.257C27.9548 17.7661 27.807 18.2908 27.6185 18.8183C33.0643 17.8278 34.5021 13.0323 34.5021 10.5H33.0021Z" fill="white"/>
<path d="M35.0021 15.5C33.4002 18.3835 29.7667 19.5348 27.1848 19.8788C27.1315 19.9941 27.0762 20.109 27.0189 20.2236C26.811 20.6393 26.576 21.0511 26.3133 21.4521C31.8965 21.0385 35.0726 18.0492 36.0021 16.5L35.0021 15.5Z" fill="white"/>
<path fill-rule="evenodd" clip-rule="evenodd" d="M22.1784 25.1224C24.3625 26.3793 25.8329 28.5883 24.8722 32.914L26.3116 33.3359C26.9445 31.1767 26.9906 26.9837 23.5226 24.3345C23.1043 24.6295 22.6564 24.8945 22.1784 25.1224ZM29.4386 28C29.116 26.764 27.9181 24.5211 25.3912 22.6178C25.083 22.9799 24.7483 23.3253 24.3866 23.6476C26.1073 24.8318 27.7076 26.5066 28.1978 28.6784L29.4386 28Z" fill="white"/>
<path d="M9.35366 13.3568C9.71585 12.9946 10.2852 12.708 11.0197 12.4943C11.1551 12.4549 11.2946 12.4184 11.4376 12.3846C11.8857 13.0571 12.6509 13.5003 13.5197 13.5003C14.5501 13.5003 15.435 12.8768 15.8176 11.9866C16.3296 11.9841 16.8078 11.9904 17.2276 11.996C17.5155 11.9998 18.5494 11.9959 18.7745 11.9959C19.1943 11.9904 19.6725 11.9841 20.1845 11.9865C20.5671 12.8768 21.452 13.5002 22.4824 13.5002C23.3512 13.5002 24.1164 13.0571 24.5645 12.3846C24.7075 12.4184 24.847 12.4548 24.9824 12.4942C25.7168 12.7079 26.2862 12.9946 26.6484 13.3568C26.8066 13.5149 26.9551 13.7962 27.05 14.223C27.1435 14.6436 27.1764 15.1681 27.1358 15.7661C27.0545 16.962 26.6828 18.3978 25.9918 19.7795C24.6111 22.5405 22.0068 25.0032 18.001 25.0032C13.9953 25.0032 11.391 22.5405 10.0103 19.7795C9.31932 18.3978 8.94758 16.962 8.8663 15.7661C8.82565 15.1681 8.85856 14.6437 8.9521 14.223C9.04702 13.7963 9.19548 13.5149 9.35366 13.3568Z" fill="white"/>
</svg>
