<svg width="29" height="37" viewBox="0 0 29 37" fill="none" xmlns="http://www.w3.org/2000/svg">
<path fill-rule="evenodd" clip-rule="evenodd" d="M6.29075 6.19095C6.23458 5.34846 6.79625 5.06763 7.41408 4.78679C8.81824 4.16896 13.3115 4.33746 13.3115 4.44979C13.143 1.36064 16.85 -0.155848 17.9172 0.0126515C19.0405 0.181151 16.9062 3.38263 16.9062 3.38263L18.0295 3.1018C18.0295 3.1018 18.0295 3.15797 17.7487 3.6073C17.4678 4.05663 16.4568 4.78679 16.4568 4.78679C18.9843 4.89913 20.6693 6.13478 20.6693 6.13478C20.6693 6.13478 21.7365 5.62929 22.6913 5.85395C23.6461 6.07862 24.7695 6.86495 24.938 7.03345C25.0503 7.20195 23.927 7.20195 23.253 7.08962C22.579 6.97729 22.8036 7.14579 22.8036 7.14579C26.623 9.33628 28.3641 13.3802 28.4765 15.3461C28.5888 17.3119 28.4203 18.8846 27.9148 19.9517C27.4093 21.0189 27.634 22.3107 27.634 22.3107L26.8476 21.412C26.8476 21.412 26.2859 22.0299 26.0613 23.0409C25.8366 24.0519 26.8476 25.0629 26.8476 25.0629C24.8818 24.5012 25.0503 21.412 25.0503 21.412C25.0503 21.412 23.6462 22.3107 22.579 22.5354C21.5118 22.76 20.8378 22.5354 20.8378 22.5354C20.894 21.1312 22.242 18.9969 23.9832 18.6037C24.2327 18.5474 24.4522 18.5049 24.6472 18.4671C25.8129 18.2415 26.1017 18.1855 26.6791 16.3571C27.2114 14.6716 26.1675 13.6517 25.0687 12.5781C24.776 12.2921 24.4795 12.0024 24.2078 11.6953C23.2265 10.5859 22.2452 10.8055 21.707 10.9258C21.5367 10.9639 21.4108 10.9921 21.3433 10.9651C21.0625 10.8528 21.905 13.2679 21.905 13.2679C21.905 13.2679 21.7927 13.3241 20.7817 12.6501C20.1884 12.2546 20.0787 11.5497 19.9985 11.0347C19.942 10.672 19.9002 10.4034 19.7145 10.4034C19.3213 10.4034 14.9403 10.5719 14.9403 10.5719C15.7267 11.6953 15.165 14.5597 14.3787 15.6831C13.6485 16.8064 12.6375 16.1886 12.6375 16.1886C12.6375 16.1886 13.0307 15.2899 12.8622 13.7172C12.768 12.838 12.5685 12.503 12.3716 12.1724C12.2163 11.9117 12.0626 11.6537 11.9635 11.1336C11.7389 9.89793 11.6827 9.72943 11.6827 9.72943C11.6827 9.72943 11.121 9.61711 10.2785 9.33628C9.43605 9.05544 8.64971 8.54994 8.08805 8.04444C7.93359 7.88998 7.71096 7.74077 7.47465 7.58238C6.93756 7.2224 6.32975 6.81503 6.29075 6.19095ZM20.7321 32.3361C20.7112 32.3455 20.6903 32.355 20.6692 32.3646C19.6952 32.7542 17.2347 32.7114 15.7812 32.6861C15.1393 32.6749 14.6938 32.6672 14.6594 32.7016C14.7156 35.8469 10.9524 37.1387 9.88528 36.9702C8.81812 36.8017 11.0648 33.6564 11.0648 33.6564L9.94147 33.8811L10.2223 33.4318C10.5031 32.9263 11.5703 32.2523 11.5703 32.2523C9.04278 32.0838 7.41398 30.7919 7.41398 30.7919C7.41398 30.7919 6.3468 31.2413 5.39197 30.9604C4.43714 30.6796 3.36999 29.8371 3.20149 29.6686C3.08916 29.5001 4.21249 29.5001 4.88649 29.6686C5.56049 29.8371 5.33581 29.6124 5.33581 29.6124C1.62883 27.2535 0.0561665 23.1533 0 21.1875C0 19.2778 0.168492 17.649 0.730157 16.638C1.23566 15.627 1.06714 14.3352 1.06714 14.3352L1.79733 15.2338C1.79733 15.2338 2.359 14.616 2.63983 13.605C2.92066 12.5379 1.96583 11.5269 1.96583 11.5269C3.93165 12.2009 3.65082 15.2338 3.65082 15.2338C3.65082 15.2338 5.05496 14.3352 6.12212 14.1667C7.24545 13.942 7.8633 14.2228 7.8633 14.2228C7.6948 15.5708 6.29063 17.649 4.54947 17.986C4.3485 18.0184 4.16774 18.0441 4.00398 18.0673C2.74897 18.2456 2.4929 18.282 1.79733 20.1203C1.17127 21.7749 2.18301 22.8598 3.24508 23.9987C3.51696 24.2903 3.79214 24.5854 4.04399 24.8945C5.03261 26.055 6.02122 25.8669 6.55671 25.765C6.72094 25.7337 6.84255 25.7106 6.90847 25.7369C7.13313 25.9054 6.40296 23.4341 6.40296 23.4341C6.40296 23.4341 6.51529 23.4341 7.52628 24.1081C8.13783 24.5158 8.23561 25.2523 8.30442 25.7707C8.34937 26.1093 8.38197 26.3548 8.53731 26.3548H13.3115C12.5251 25.1753 13.2553 22.3108 14.0416 21.2436C14.8841 20.1203 15.8389 20.7943 15.8389 20.7943C15.8389 20.7943 15.3896 21.693 15.5019 23.2656C15.5939 24.1242 15.7864 24.4638 15.9696 24.7872C16.1219 25.0561 16.2679 25.3137 16.3444 25.8493C16.5129 27.0849 16.5691 27.2534 16.5691 27.2534C16.5691 27.2534 17.1869 27.4219 17.9733 27.7028C18.8158 28.0398 19.5459 28.6014 20.1076 29.1069C20.2539 29.2532 20.4613 29.3995 20.6822 29.5553C21.2247 29.9379 21.8487 30.378 21.8487 31.0166C21.8487 31.8304 21.3247 32.0678 20.7321 32.3361Z" fill="white"/>
</svg>
