<svg width="24" height="35" viewBox="0 0 24 35" fill="none" xmlns="http://www.w3.org/2000/svg">
<path d="M0.579737 13.5775C-2.41286 27.543 6.90669 33.3435 11.9405 34.498C16.9744 33.3435 26.2939 27.5428 23.3013 13.5773L17.4824 14.6857C18.2675 11.9609 18.2583 5.20934 11.9405 0C5.62281 5.20934 5.61359 11.9612 6.3987 14.6859L0.579737 13.5775Z" fill="white"/>
<path d="M12.0798 34.4978V30.3414M12.0798 2.83105V9.97511M12.0798 30.3414L2.73828 21M12.0798 30.3414V24.5225M12.0798 30.3414L21.4213 21M12.0798 24.5225L5.69374 18.1365M12.0798 24.5225V16.6253M12.0798 24.5225L18.4658 18.1365M12.0798 16.6253L8.45442 13M12.0798 16.6253V9.97511M12.0798 16.6253L15.7051 13M12.0798 9.97511L9.60465 7.5M12.0798 9.97511L14.5549 7.5" stroke="#FF9E67" stroke-width="1.5"/>
</svg>
