<svg width="25" height="38" viewBox="0 0 25 38" fill="none" xmlns="http://www.w3.org/2000/svg">
<path fill-rule="evenodd" clip-rule="evenodd" d="M3.07837 4.02922L1.07837 3.52922C2.27837 0.329218 5.57837 -0.137449 7.07837 0.0292181C4.67837 0.829218 3.4117 3.02922 3.07837 4.02922ZM0.0783078 9.02922L1.57831 9.52922C1.74497 9.02922 2.47831 8.02922 4.07831 8.02922C5.67831 8.02922 7.41164 4.69588 8.07831 3.02922C6.91164 3.86255 4.27831 5.42922 3.07831 5.02922C1.57831 4.52922 -0.421692 6.02922 0.0783078 9.02922ZM7.57831 9.02922L8.07831 11.5292C6.24497 12.8626 2.17831 14.5292 0.578308 10.5292L7.57831 9.02922ZM21.0784 4.02922L23.0784 3.52922C21.8784 0.329218 18.5784 -0.137449 17.0784 0.0292181C19.4784 0.829218 20.745 3.02922 21.0784 4.02922ZM24.0784 9.02922L22.5784 9.52922C22.4118 9.02922 21.6784 8.02922 20.0784 8.02922C18.4784 8.02922 16.7451 4.69588 16.0784 3.02922C17.2451 3.86255 19.8784 5.42922 21.0784 5.02922C22.5784 4.52922 24.5784 6.02922 24.0784 9.02922ZM16.5784 9.02922L16.0784 11.5292C17.9118 12.8626 21.9784 14.5292 23.5784 10.5292L16.5784 9.02922ZM12.0784 25.5C12.4457 25.5 12.8028 25.456 13.1446 25.3729C12.8766 26.0325 12.528 27.6294 12.2342 28.9756C12.1261 29.4708 12.0254 29.9321 11.9388 30.3004C11.5964 31.7575 11.4636 33.2533 11.7783 34.4279C11.9535 35.0816 12.2965 35.4609 12.7102 35.6823C13.1462 35.9156 13.7231 36.0047 14.3819 35.9408C15.415 35.8406 16.4731 35.3842 17.1916 34.8188L17.5095 32.1929L21.4677 32.1934L19.8152 35.9457L18.5723 35.5978C17.5912 36.5733 16.0131 37.2897 14.5267 37.4338C13.6719 37.5167 12.7751 37.4183 12.0025 37.0048C11.2076 36.5795 10.6072 35.8528 10.3294 34.8161C9.91948 33.2861 10.1156 31.5017 10.4786 29.9572C10.5967 29.455 10.7144 28.8655 10.8334 28.2689L10.8334 28.2689C11.0459 27.2043 11.2629 26.1171 11.4947 25.4625C11.6858 25.4872 11.8806 25.5 12.0784 25.5ZM5.25465 16.3896H7.57837V17.8896H4.77395L1.07837 15.2499L1.95023 14.0293L5.25465 16.3896ZM11.029 25.3769C10.5057 25.2519 10.0179 25.0355 9.58336 24.7455L7.5497 27.0334L4.67889 28.4688L5.34971 29.8104L8.4789 28.2458L11.029 25.3769ZM6.37575 20.7642L7.57837 19.712V20.9999C7.57837 21.2251 7.59491 21.4464 7.62683 21.6627L6.65284 22.5149L2.71886 20.829L3.30974 19.4502L6.37575 20.7642ZM7.91955 22.7218L6.7583 23.4186L3.40823 23.8971L3.62036 25.3821L7.2703 24.8606L8.71744 23.9924C8.38504 23.6193 8.11383 23.1905 7.91955 22.7218ZM16.1744 28.2458L13.523 25.263C14.0178 25.0954 14.474 24.8441 14.8747 24.5258L17.1036 27.0334L19.9744 28.4688L19.3036 29.8104L16.1744 28.2458ZM15.6058 23.7943L17.383 24.8606L21.033 25.3821L21.2451 23.8971L17.895 23.4186L16.3296 22.4793C16.1623 22.9599 15.9159 23.4035 15.6058 23.7943ZM16.9497 16.3896L16.5784 16.0183V17.8896H19.8794L23.575 15.2499L22.7031 14.0293L19.3987 16.3896H16.9497ZM18.2776 20.7642L16.5784 19.2775V20.9999C16.5784 21.0886 16.5758 21.1766 16.5708 21.2639L18.0005 22.5149L21.9345 20.829L21.3436 19.4502L18.2776 20.7642ZM19.1167 33.81L18.5809 33.8362L18.5911 34.0454L18.9668 34.1506L19.1167 33.81ZM10.058 8.82636C9.9501 9.42514 9.99541 10.0359 10.0687 10.4022L10.1211 10.6646L9.89639 10.8893C9.05247 11.7332 8.57837 12.8778 8.57837 14.0713V21.0002C8.57837 22.9332 10.1454 24.5002 12.0784 24.5002C14.0114 24.5002 15.5784 22.9332 15.5784 21.0002V14.0713C15.5784 12.8778 15.1043 11.7332 14.2603 10.8893L14.0356 10.6646L14.0881 10.4022C14.1613 10.0359 14.2066 9.42514 14.0988 8.82636C14.0578 8.59906 13.9971 8.38443 13.9136 8.18945L13.512 11.0002H10.6447L10.2432 8.18945C10.1597 8.38443 10.0989 8.59906 10.058 8.82636Z" fill="white"/>
</svg>
