<svg width="20" height="19" viewBox="0 0 20 19" fill="none" xmlns="http://www.w3.org/2000/svg">
<path d="M11.1167 1.32943L12.9718 5.08669C13.0653 5.27662 13.2037 5.44094 13.3749 5.56551C13.5461 5.69008 13.7449 5.77114 13.9544 5.8017L18.1018 6.40432C18.343 6.43913 18.5697 6.5408 18.7561 6.6978C18.9426 6.8548 19.0814 7.06087 19.1567 7.29266C19.2321 7.52446 19.241 7.77271 19.1825 8.00932C19.1241 8.24594 19.0005 8.46148 18.8259 8.6315L15.8253 11.5545C15.6736 11.7022 15.5601 11.8846 15.4947 12.086C15.4292 12.2874 15.4137 12.5016 15.4497 12.7103L16.1579 16.8397C16.1992 17.0799 16.1724 17.327 16.0805 17.5528C15.9887 17.7786 15.8356 17.9742 15.6384 18.1174C15.4411 18.2607 15.2078 18.346 14.9646 18.3636C14.7215 18.3812 14.4783 18.3304 14.2625 18.2169L10.5524 16.2675C10.365 16.1689 10.1565 16.1174 9.94473 16.1174C9.733 16.1174 9.52456 16.1689 9.33717 16.2675L5.62706 18.2169C5.41136 18.3305 5.16822 18.3814 4.92508 18.3639C4.68194 18.3463 4.44855 18.2611 4.25137 18.1178C4.0542 17.9744 3.901 17.7787 3.80933 17.5528C3.71766 17.327 3.6911 17.0799 3.73261 16.8397L4.4409 12.7103C4.47634 12.5017 4.46073 12.2875 4.39534 12.0862C4.32994 11.8849 4.21672 11.7025 4.06542 11.5545L1.06483 8.6315C0.890203 8.46155 0.766671 8.24613 0.708143 8.0096C0.649616 7.77306 0.658443 7.52484 0.73367 7.29307C0.808897 7.06131 0.947436 6.85521 1.13372 6.69814C1.32001 6.54107 1.54652 6.43931 1.78766 6.40432L5.93516 5.8017C6.14465 5.77114 6.34353 5.69008 6.51472 5.56551C6.6859 5.44094 6.82413 5.27662 6.91765 5.08669L8.77271 1.32943C8.88017 1.11019 9.04696 0.925437 9.25414 0.796257C9.46132 0.667077 9.70057 0.598633 9.94473 0.598633C10.1889 0.598633 10.4281 0.667077 10.6353 0.796257C10.8425 0.925437 11.0093 1.11019 11.1167 1.32943Z" fill="#FFC773"/>
</svg>
