<svg width="43" height="35" viewBox="0 0 43 35" fill="none" xmlns="http://www.w3.org/2000/svg">
<path fill-rule="evenodd" clip-rule="evenodd" d="M27 2.5V0L25.5 1.5C20.5725 1.99275 10.7891 5.78756 10.5063 17H6L5 16L0 18L5 20L6 19H10.5578C11.3782 29.4396 20.722 33.0222 25.5 33.5L27 35V32.5C22.7319 31.7096 14.4157 27.9206 13.5699 19H32.1367L25.8343 31.1547L27.1659 31.8451L33.8264 19H35L38 22L39 21L37 19L36 18L37 17L39 15L38 14L35 17H33.8502L27.1755 3.17383L25.8247 3.82595L32.1846 17H13.5076C13.8017 7.36068 22.5757 3.31931 27 2.5ZM42 14L38 18L42 22L43 21L40 18L43 15L42 14Z" fill="white"/>
</svg>
