<svg width="39" height="33" viewBox="0 0 39 33" fill="none" xmlns="http://www.w3.org/2000/svg">
<path d="M1.35355 3.14645L0.5 2.29289V3.5C0.5 6.2668 2.89846 11.8534 11.9106 13.4919L12.3372 13.5695L12.4743 13.1581L14.4743 7.15811L14.8398 6.06171L13.7905 6.54602C11.7934 7.46773 6.39002 8.18292 1.35355 3.14645Z" fill="white" stroke="#FF9E67"/>
<path d="M37.1464 2.64645L38 1.79289V3C38 5.7668 35.6015 11.3534 26.5894 12.9919L26.1628 13.0695L26.0257 12.6581L24.0257 6.65811L23.6602 5.56171L24.7095 6.04602C26.7066 6.96773 32.11 7.68292 37.1464 2.64645Z" fill="white" stroke="#FF9E67"/>
<path d="M18.1962 5.15867L18.0764 5.63817L18.1962 5.15867C16.4444 4.72072 14.4359 4.98302 13.1606 6.44694C11.9132 7.87887 10.6738 9.96076 10.5167 12.4665C9.57825 12.4233 8.31628 12.4627 7.07044 12.696C5.59196 12.973 4.02484 13.5436 3.10957 14.6877L2.84819 15.0144L3.12371 15.3293C3.74985 16.0448 4.88726 16.9966 6.3013 17.564C7.54028 18.0612 9.01613 18.2708 10.5374 17.7382C10.5813 18.2157 10.6674 18.79 10.8142 19.3932C11.0479 20.3541 11.4443 21.4257 12.1 22.3C13.5555 24.2407 14 25.6379 14 27C14 27.8349 14.2722 29.1902 15.0915 30.3508C15.9292 31.5375 17.3274 32.5 19.5 32.5C21.6726 32.5 23.0708 31.5375 23.9085 30.3508C24.7278 29.1902 25 27.8349 25 27C25 25.6379 25.4445 24.2407 26.9 22.3C27.5557 21.4257 27.9521 20.3541 28.1858 19.3932C28.3326 18.79 28.4187 18.2157 28.4626 17.7382C29.9839 18.2708 31.4597 18.0612 32.6987 17.564C34.1127 16.9966 35.2502 16.0448 35.8763 15.3293L36.1518 15.0144L35.8904 14.6877C34.9752 13.5436 33.408 12.973 31.9296 12.696C30.6837 12.4627 29.4217 12.4233 28.4833 12.4665C28.3262 9.96077 27.0868 7.87887 25.8394 6.44694C24.5641 4.98302 22.5556 4.72072 20.8038 5.15867L19.5 5.48461L18.1962 5.15867ZM9.751 15.0656C9.79705 15.2498 9.76628 15.4226 9.69652 15.5419C9.63147 15.6531 9.53303 15.7222 9.39642 15.7345C8.61588 15.8046 7.55949 15.6935 6.4919 15.0754C7.0705 14.8571 7.94205 14.6237 9.06593 14.5359C9.36936 14.5122 9.66553 14.7237 9.751 15.0656ZM29.9341 14.5359C31.058 14.6237 31.9295 14.8571 32.5081 15.0754C31.4405 15.6935 30.3841 15.8046 29.6036 15.7345C29.467 15.7222 29.3685 15.6531 29.3035 15.5419C29.2337 15.4226 29.2029 15.2498 29.249 15.0656C29.3345 14.7237 29.6306 14.5122 29.9341 14.5359ZM23.4065 18.4338C23.8086 17.9051 24.4812 17.2555 25.49 16.7595C25.4361 17.0275 25.3224 17.3102 25.1208 17.5642C24.8302 17.9305 24.3149 18.2896 23.4065 18.4338ZM13.51 16.7595C14.5188 17.2555 15.1914 17.9051 15.5935 18.4338C14.6851 18.2896 14.1698 17.9305 13.8792 17.5642C13.6776 17.3102 13.5639 17.0275 13.51 16.7595Z" fill="white" stroke="#FF9E67"/>
</svg>
