<svg width="24" height="24" viewBox="0 0 24 24" fill="none" xmlns="http://www.w3.org/2000/svg">
<rect x="0.666016" y="0.666992" width="23.3333" height="23.3333" rx="11.6667" fill="white"/>
<path d="M11.082 14.0005C11.082 14.6908 11.6417 15.2505 12.332 15.2505C13.0224 15.2505 13.582 14.6908 13.582 14.0005L11.082 14.0005ZM13.582 9.00049C13.582 8.31013 13.0224 7.75049 12.332 7.75049C11.6417 7.75049 11.082 8.31013 11.082 9.00049L13.582 9.00049ZM13.582 14.0005L13.582 9.00049L11.082 9.00049L11.082 14.0005L13.582 14.0005Z" fill="#FFA775"/>
<path d="M12.3327 12.7505C11.6423 12.7505 11.0827 13.3101 11.0827 14.0005C11.0827 14.6908 11.6423 15.2505 12.3327 15.2505V12.7505ZM15.666 15.2505C16.3564 15.2505 16.916 14.6908 16.916 14.0005C16.916 13.3101 16.3564 12.7505 15.666 12.7505V15.2505ZM12.3327 15.2505H15.666V12.7505H12.3327V15.2505Z" fill="#FFA775"/>
</svg>
