<svg width="40" height="32" viewBox="0 0 40 32" fill="none" xmlns="http://www.w3.org/2000/svg">
<path fill-rule="evenodd" clip-rule="evenodd" d="M19.9999 0L23.0605 3.06066L21.8106 4.31066H33.9999V5.81066H32.7499V11.8013L38.0896 18.5973L36.9102 19.524L31.9999 13.2746L27.0896 19.524L25.9102 18.5973L31.2499 11.8013V5.81066H20.7499V30.3107H26.9999V31.8107H12.9999V30.3107H19.2499V5.81066H8.74989V11.8013L14.0896 18.5973L12.9102 19.524L7.99989 13.2746L3.08963 19.524L1.91015 18.5973L7.24989 11.8013V5.81066H5.99989V4.31066H18.1892L16.9392 3.06066L19.9999 0ZM19.9999 4L20.9392 3.06066L19.9999 2.12132L19.0606 3.06066L19.9999 4Z" fill="white"/>
<path d="M39.9999 18.0605H23.9999C23.9999 22.4788 27.5816 26.0605 31.9999 26.0605C36.4182 26.0605 39.9999 22.4788 39.9999 18.0605Z" fill="white"/>
<path d="M16 18.0605H1.90735e-06C1.90735e-06 22.4788 3.58172 26.0605 8 26.0605C12.4183 26.0605 16 22.4788 16 18.0605Z" fill="white"/>
</svg>
