<svg width="66" height="21" viewBox="0 0 66 21" fill="none" xmlns="http://www.w3.org/2000/svg">
<path d="M28.5713 20.4402H23.2969L26.5959 1.04688H31.87L28.5713 20.4402Z" fill="#00579F"/>
<path d="M47.691 1.52096C46.6506 1.12857 45.0005 0.695312 42.9602 0.695312C37.7516 0.695312 34.0837 3.33597 34.0612 7.11131C34.0179 9.89676 36.6873 11.4439 38.6837 12.3726C40.7244 13.3217 41.418 13.9411 41.418 14.787C41.3972 16.0863 39.7691 16.6851 38.2505 16.6851C36.1447 16.6851 35.0164 16.3764 33.3017 15.6536L32.6072 15.3437L31.8691 19.6971C33.1062 20.2329 35.3853 20.7084 37.7516 20.7292C43.2859 20.7292 46.8889 18.1294 46.9315 14.1062C46.9526 11.8985 45.5431 10.2069 42.5042 8.82459C40.6595 7.93724 39.5297 7.33891 39.5297 6.431C39.5513 5.60562 40.4852 4.76022 42.5677 4.76022C44.2824 4.71882 45.5422 5.11067 46.4966 5.50279L46.9736 5.70872L47.691 1.52096Z" fill="#00579F"/>
<path d="M54.6995 13.5698C55.1338 12.4557 56.8052 8.14374 56.8052 8.14374C56.7833 8.18515 57.2387 7.00906 57.4992 6.28706L57.8678 7.9581C57.8678 7.9581 58.8666 12.6002 59.0835 13.5698C58.2592 13.5698 55.7412 13.5698 54.6995 13.5698ZM61.2101 1.04688H57.1303C55.8722 1.04688 54.9164 1.39732 54.3735 2.65595L46.5391 20.4399H52.0733C52.0733 20.4399 52.9845 18.0463 53.1803 17.5308C53.7875 17.5308 59.1712 17.5308 59.9522 17.5308C60.1037 18.2117 60.5816 20.4399 60.5816 20.4399H65.4652L61.2101 1.04688Z" fill="#00579F"/>
<path d="M18.8893 1.04688L13.7239 14.2713L13.1594 11.5892C12.2045 8.49446 9.20945 5.13208 5.86719 3.46021L10.5985 20.4196H16.1761L24.4665 1.04688H18.8893Z" fill="#00579F"/>
<path d="M8.92831 1.04688H0.442284L0.355469 1.43872C6.9751 3.04807 11.3592 6.92734 13.1604 11.59L11.3156 2.67706C11.0119 1.43845 10.0785 1.08773 8.92831 1.04688Z" fill="#FAA61A"/>
</svg>
