<svg width="31" height="33" viewBox="0 0 31 33" fill="none" xmlns="http://www.w3.org/2000/svg">
<path fill-rule="evenodd" clip-rule="evenodd" d="M22.4992 9.00011C20.4992 6.60011 20.3326 2.66678 20.4992 1.00011C19.8326 0.833444 17.3992 1.20011 12.9992 4.00011C8.59921 6.80011 7.83255 8.50011 7.99921 9.00011C11.1992 9.00011 12.9992 12.0001 13.4992 13.5001C10.2992 22.7001 18.4992 27.6668 22.9992 29.0001L29.9992 25.0001C32.7992 13.0001 26.1659 9.33344 22.4992 9.00011ZM19.9993 1.5C18.8327 1.83333 15.8993 2.9 13.4993 4.5C10.4993 6.5 9.49932 7.5 8.49932 8.5C7.49932 9.5 11.9993 8 14.9993 6C17.9993 4 20.4994 2 19.9993 1.5ZM7.99929 6C7.33262 6.83333 6.09929 8.7 6.49929 9.5C6.80093 10.1033 7.46651 10.1606 8.16671 10.221C8.62716 10.2607 9.10258 10.3016 9.4993 10.5C10.2993 10.9 10.4993 11.6667 10.4993 12C9.66597 13 8.4993 15.4 10.4993 17C9.9993 17 8.7993 16.8 7.9993 16C7.9993 17 8.6993 19.6 11.4993 22C14.9993 25 13.4993 33 7.4993 33C2.6993 33 1.16597 29.6667 0.999301 28C2.4993 29.6667 6.26288 32.1486 8.9993 28.5C10.7906 26.1116 8.83841 23.9015 6.76167 21.5504C5.3603 19.9639 3.90221 18.3131 3.4993 16.5C2.30309 11.1171 3.49927 9 7.99929 6ZM0.991415 23.1754C0.995789 23.1014 0.999301 23.0419 0.999301 23C4.59933 23.4 4.49931 25.8333 3.9993 27C0.792604 26.5419 0.94359 23.9853 0.991415 23.1754Z" fill="white"/>
</svg>
