<svg width="23" height="25" viewBox="0 0 23 25" fill="none" xmlns="http://www.w3.org/2000/svg">
<path d="M0.220703 21.3284C0.220703 23.0479 1.70205 24.3707 3.45289 24.3707H19.3452C21.0961 24.3707 22.4429 23.0479 22.4429 21.3284V11.4077H0.220703V21.3284Z" fill="white"/>
<path d="M19.5563 3.57321H16.8708V1.43646C16.8708 0.866658 16.4679 0.296875 15.7966 0.296875C15.1252 0.296875 14.7225 0.724208 14.7225 1.43646V3.57321H8.14295V1.43646C8.14295 0.866658 7.74006 0.296875 7.06869 0.296875C6.39731 0.296875 5.99459 0.724208 5.99459 1.43646V3.57321H3.30909C1.56352 3.57321 0.220703 4.99774 0.220703 6.84959V9.55613H22.3761V6.84959C22.7789 4.99774 21.3019 3.57321 19.5563 3.57321Z" fill="white"/>
<path d="M9.87257 21.593C9.8044 21.593 9.7476 21.5718 9.70215 21.5295C9.65671 21.4801 9.63399 21.4236 9.63399 21.3601C9.63399 21.339 9.64156 21.3072 9.65671 21.2649L12.3834 15.4554H8.82735C8.75161 15.4554 8.68723 15.4307 8.63421 15.3813C8.5812 15.3319 8.55469 15.272 8.55469 15.2014V14.4501C8.55469 14.3725 8.57741 14.309 8.62285 14.2596C8.67587 14.2102 8.74404 14.1855 8.82735 14.1855H13.8262C13.9095 14.1855 13.9777 14.2102 14.0307 14.2596C14.0837 14.309 14.1102 14.3725 14.1102 14.4501V15.1168C14.1102 15.2649 14.0724 15.4166 13.9966 15.5718L11.2927 21.339C11.2473 21.4166 11.198 21.4801 11.145 21.5295C11.092 21.5718 11.02 21.593 10.9291 21.593H9.87257Z" fill="#FFA775"/>
</svg>
