<svg width="23" height="25" viewBox="0 0 23 25" fill="none" xmlns="http://www.w3.org/2000/svg">
<path d="M0.222656 21.6614C0.222656 23.3809 1.70401 24.7037 3.45485 24.7037H19.3472C21.098 24.7037 22.4449 23.3809 22.4449 21.6614V11.7407H0.222656V21.6614Z" fill="white"/>
<path d="M19.5583 3.90622H16.8728V1.76947C16.8728 1.19967 16.4699 0.629883 15.7985 0.629883C15.1271 0.629883 14.7244 1.05722 14.7244 1.76947V3.90622H8.1449V1.76947C8.1449 1.19967 7.74201 0.629883 7.07064 0.629883C6.39927 0.629883 5.99654 1.05722 5.99654 1.76947V3.90622H3.31104C1.56547 3.90622 0.222656 5.33075 0.222656 7.1826V9.88914H22.378V7.1826C22.7808 5.33075 21.3038 3.90622 19.5583 3.90622Z" fill="white"/>
<path d="M7.21875 16.4434C7.21875 15.2802 6.27252 14.334 5.10938 14.334C4.10367 14.334 3.2332 15.0494 3.03961 16.0351C2.97727 16.3527 3.1841 16.6606 3.50162 16.723C3.81914 16.7856 4.12717 16.5786 4.18951 16.261C4.27547 15.8234 4.6623 15.5059 5.10938 15.5059C5.62629 15.5059 6.04688 15.9265 6.04688 16.4434C6.04688 16.9603 5.62629 17.3809 5.10938 17.3809C4.78582 17.3809 4.52344 17.6432 4.52344 17.9668C4.52344 18.2904 4.78582 18.5528 5.10938 18.5528C5.62629 18.5528 6.04688 18.9734 6.04688 19.4903C6.04688 20.0072 5.62629 20.4278 5.10938 20.4278C4.64426 20.4278 4.24512 20.0813 4.18096 19.6219C4.17492 19.5786 4.17188 19.5342 4.17188 19.4903C4.17188 19.1667 3.90949 18.9043 3.58594 18.9043C3.26238 18.9043 3 19.1667 3 19.4903C3 19.5881 3.0068 19.6868 3.02033 19.7838C3.16482 20.819 4.06295 21.5997 5.10938 21.5997C6.27252 21.5997 7.21875 20.6534 7.21875 19.4903C7.21875 18.8918 6.96779 18.3511 6.56607 17.9668C6.96779 17.5826 7.21875 17.0419 7.21875 16.4434Z" fill="#FFA775"/>
<path d="M18.988 17.5106C18.5327 17.031 17.8926 16.756 17.2319 16.756C17.0362 16.756 16.8667 16.7657 16.7142 16.7842L16.9261 15.5049H18.6841C19.0077 15.5049 19.2701 15.2426 19.2701 14.9189C19.2701 14.5953 19.0077 14.333 18.6841 14.333H16.4293C16.1426 14.333 15.8981 14.5404 15.8512 14.8231L15.4045 17.5194C15.3684 17.7374 15.459 17.9566 15.6372 18.0872C15.8153 18.2178 16.0529 18.2366 16.2499 18.1366C16.2548 18.1341 16.2726 18.1253 16.301 18.1126C16.5488 18.001 16.7475 17.9279 17.2319 17.9279C17.5778 17.9279 17.8996 18.0663 18.1382 18.3175C18.3765 18.5685 18.4979 18.8979 18.4799 19.2448C18.4461 19.8945 17.9095 20.4138 17.258 20.4269C16.6257 20.4387 16.0816 19.9779 15.9944 19.3526C15.9497 19.0321 15.6539 18.8086 15.3332 18.8533C15.0126 18.898 14.7891 19.194 14.8338 19.5146C15.0008 20.7111 16.0271 21.5992 17.2322 21.5991C17.2485 21.5991 17.2652 21.5989 17.2817 21.5986C18.5444 21.5732 19.5848 20.566 19.6502 19.3056C19.6849 18.6345 19.4498 17.997 18.988 17.5106Z" fill="#FFA775"/>
<path d="M10.9981 16.8643C10.8344 16.8643 10.6745 16.8811 10.52 16.9129C11.0811 15.9294 11.7601 15.4023 11.7787 15.3881C12.037 15.1947 12.0904 14.8285 11.8976 14.5693C11.7046 14.3096 11.3373 14.2557 11.0779 14.4488C10.9929 14.5119 9.00662 16.0204 8.66045 18.8588C8.64117 18.9803 8.63086 19.1047 8.63086 19.2315C8.63086 20.5368 9.69275 21.5987 10.998 21.5987C12.3033 21.5987 13.3652 20.5368 13.3652 19.2315C13.3653 17.9262 12.3034 16.8643 10.9981 16.8643ZM10.9981 20.4268C10.339 20.4268 9.80279 19.8906 9.80279 19.2315C9.80279 18.5724 10.339 18.0362 10.9981 18.0362C11.6572 18.0362 12.1934 18.5724 12.1934 19.2315C12.1934 19.8906 11.6572 20.4268 10.9981 20.4268Z" fill="#FFA775"/>
</svg>
